<?xml version="1.0" encoding="UTF-8" standalone="no"?>
<svg
   xmlns:dc="http://purl.org/dc/elements/1.1/"
   xmlns:cc="http://creativecommons.org/ns#"
   xmlns:rdf="http://www.w3.org/1999/02/22-rdf-syntax-ns#"
   xmlns:svg="http://www.w3.org/2000/svg"
   xmlns="http://www.w3.org/2000/svg"
   viewBox="215 350 120 100"
   height="200"
   width="200"
   xml:space="preserve"
   id="svg2"
   version="1.1"><metadata
     id="metadata8"><rdf:RDF><cc:Work
         rdf:about=""><dc:format>image/svg+xml</dc:format><dc:type
           rdf:resource="http://purl.org/dc/dcmitype/StillImage" /></cc:Work></rdf:RDF></metadata><defs
     id="defs6" /><g
     transform="matrix(1.3333333,0,0,-1.3333333,0,666.66667)"
     id="g10"><g
       transform="scale(0.1)"
       id="g12"><path
         id="path426"
         style="fill:#d5724d;fill-opacity:1;fill-rule:evenodd;stroke:none"
         d="m 3088.58,3045.14 c -7.44,-41.89 -74.95,-41.89 -82.4,0 20.14,-4.64 57.78,-4.66 82.4,0" /><path
         id="path428"
         style="fill:#383434;fill-opacity:1;fill-rule:evenodd;stroke:none"
         d="m 2057.65,1653.32 c 63.21,0 114.77,74.59 114.77,166.04 0,91.45 -51.56,166.04 -114.77,166.04 -63.22,0 -114.78,-74.59 -114.78,-166.04 0,-91.45 51.56,-166.04 114.78,-166.04" /><path
         id="path430"
         style="fill:#467c6e;fill-opacity:1;fill-rule:evenodd;stroke:none"
         d="m 2145.27,1672.21 c 4.62,3.47 104.79,79.13 104.79,79.13 45.91,-15.14 59.16,-145.34 63.83,-206.07 H 2204.2 l -58.93,126.94" /><path
         id="path432"
         style="fill:#f4ad69;fill-opacity:1;fill-rule:evenodd;stroke:none"
         d="m 2051.26,1837.22 h -48.41 v -30.56 c 0.02,-16.05 -73.11,-36.8 -88.29,-41.64 -45.42,-79.06 86.78,-124.96 128.83,-187.43 h 12.48 12.49 c 42.05,62.47 160.44,104.91 122.22,187.43 -15.17,4.84 -90.94,25.59 -90.91,41.64 v 30.56 h -48.41" /><path
         id="path434"
         style="fill:#467c6e;fill-opacity:1;fill-rule:evenodd;stroke:none"
         d="m 1949.12,1662.48 c -4.62,3.46 -94.04,88.86 -94.04,88.86 -45.91,-15.14 -59.15,-145.34 -63.83,-206.07 h 109.69 l 48.18,117.21" /><path
         id="path436"
         style="fill:#458b79;fill-opacity:1;fill-rule:evenodd;stroke:none"
         d="m 1914.56,1765.02 c -14.71,-2.87 -29.14,-5.66 -40.64,-8.32 l -0.55,-0.13 -0.55,-0.13 -0.53,-0.12 -0.54,-0.13 -0.53,-0.13 -0.52,-0.12 -1.04,-0.26 -0.51,-0.12 -0.5,-0.13 -0.51,-0.12 -0.02,-0.01 -0.47,-0.12 -0.49,-0.12 -0.48,-0.13 -0.48,-0.12 -0.47,-0.12 -0.47,-0.13 -1.26,-0.34 -0.11,-0.03 -0.45,-0.12 -0.44,-0.13 -0.43,-0.12 -0.43,-0.12 -0.42,-0.12 -0.41,-0.13 -0.34,-0.1 -0.07,-0.02 -0.41,-0.12 -0.39,-0.12 -0.38,-0.12 h -0.01 l -0.38,-0.13 -0.75,-0.24 -0.27,-0.09 -0.1,-0.03 -1.05,-0.36 -0.18,-0.06 -0.15,-0.06 -0.66,-0.24 -0.31,-0.11 -0.28,-0.11 -0.81,-0.32 -0.24,-0.1 c -0.3,-0.13 -0.59,-0.26 -0.87,-0.38 l -0.03,-0.02 -0.04,-0.02 c -0.29,-0.13 -0.57,-0.27 -0.84,-0.41 l -0.05,-0.02 c -0.25,-0.13 -0.48,-0.25 -0.69,-0.38 l -0.08,-0.05 -0.04,-0.02 c -0.22,-0.13 -0.42,-0.26 -0.6,-0.39 l -0.04,-0.02 -0.02,-0.02 c -0.2,-0.14 -0.37,-0.28 -0.53,-0.41 4.62,-10.12 10.79,-44.71 17.25,-87.43 -6.54,-43.59 -32.07,-74.88 -13.7,-116.28 h 30 167.01 1.31 1.31 167.01 30.01 c 18.36,41.4 -7.17,72.69 -13.7,116.28 6.46,42.72 12.62,77.31 17.25,87.43 -0.16,0.14 -0.34,0.27 -0.54,0.41 l -0.02,0.02 -0.04,0.02 c -0.18,0.13 -0.38,0.26 -0.59,0.39 l -0.04,0.02 -0.09,0.05 c -0.21,0.13 -0.44,0.25 -0.68,0.38 l -0.06,0.02 c -0.26,0.14 -0.54,0.28 -0.84,0.41 l -0.03,0.02 -0.04,0.02 -0.86,0.38 -0.25,0.1 -0.8,0.32 -0.28,0.11 -0.32,0.11 -0.65,0.24 -0.16,0.06 -0.18,0.06 -1.05,0.36 -0.09,0.03 -0.27,0.09 -0.75,0.24 -0.38,0.13 h -0.02 l -0.38,0.12 -0.39,0.12 -0.4,0.12 -0.07,0.02 -0.34,0.1 -0.42,0.13 -0.42,0.12 -0.43,0.12 -0.43,0.12 -0.44,0.13 -0.44,0.12 -0.12,0.03 -1.25,0.34 -0.47,0.13 -0.47,0.12 -0.48,0.12 -0.49,0.13 -0.49,0.12 -0.46,0.12 -0.03,0.01 -0.5,0.12 -0.51,0.13 -0.51,0.12 -1.03,0.26 -0.53,0.12 -0.53,0.13 -0.53,0.13 -0.54,0.12 -0.54,0.13 -0.55,0.13 c -11.5,2.66 -25.94,5.45 -40.65,8.32 1.45,-5.93 2.21,-12.02 2.21,-18.25 0,-56.73 -62.78,-102.72 -140.22,-102.72 -77.44,0 -140.22,45.99 -140.22,102.72 0,6.23 0.76,12.33 2.21,18.25" /><path
         id="path438"
         style="fill:#f5b870;fill-opacity:1;fill-rule:evenodd;stroke:none"
         d="m 1908.98,2063.54 c 8.02,-36.06 -7.93,-66.1 -35.24,-72.58 -27.31,-6.46 -55.61,13.09 -63.63,49.16 -8.02,36.06 7.6,70.56 34.91,77.02 27.3,6.48 55.94,-17.52 63.96,-53.6" /><path
         id="path440"
         style="fill:#f5b870;fill-opacity:1;fill-rule:evenodd;stroke:none"
         d="m 2204.2,2063.54 c -8.02,-36.06 7.92,-66.1 35.23,-72.58 27.31,-6.46 55.62,13.09 63.63,49.16 8.03,36.06 -7.59,70.56 -34.9,77.02 -27.31,6.48 -55.94,-17.52 -63.96,-53.6" /><path
         id="path442"
         style="fill:#f7c386;fill-opacity:1;fill-rule:evenodd;stroke:none"
         d="m 2056.59,2369.34 -0.62,-0.03 c -14.46,0.58 -28.47,1.13 -28.47,1.13 l 0.06,-2.26 c -1.85,-0.07 -2.99,-0.12 -2.99,-0.12 -57.78,-2.29 -112.18,-33.42 -147.07,-80.82 -34.92,-47.45 -39.56,-107.21 -36.82,-164.43 7.08,-147.05 89.45,-312.14 215.91,-313.37 126.46,1.23 208.82,166.32 215.9,313.37 2.75,57.22 -1.89,116.98 -36.81,164.43 -34.89,47.4 -89.3,78.53 -147.08,80.82 0,0 -1.13,0.05 -2.98,0.12 l 0.06,2.26 c 0,0 -14.01,-0.55 -28.47,-1.13 l -0.62,0.03" /><path
         id="path444"
         style="fill:#383434;fill-opacity:1;fill-rule:evenodd;stroke:none"
         d="m 2146.46,2312.36 c -1.73,-8.08 -0.19,-51.37 49.63,-117.71 49.81,-66.35 53.66,-72.14 53.66,-72.14 0,0 -0.11,-115.09 6.53,-100.95 6.63,14.14 19.67,100.96 19.9,106.23 0.23,5.27 9.35,55.89 -3.35,107.83 -12.69,51.93 -28.71,71.51 -50.72,80.26 -22.01,8.76 -75.65,-3.52 -75.65,-3.52" /><path
         id="path446"
         style="fill:#383434;fill-opacity:1;fill-rule:evenodd;stroke:none"
         d="m 1868.9,2172.14 c -8.66,-9.81 -36.58,-33.25 -36.58,-33.25 8.28,-39.44 15.42,-112.36 24.86,-118.33 3.97,10.71 7.68,82.67 11.72,151.58" /><path
         id="path448"
         style="fill:#383434;fill-opacity:1;fill-rule:evenodd;stroke:none"
         d="m 2249.75,2122.51 c 2.26,37.92 21.71,124.49 12.18,148.11 -27.49,68.14 -77.84,95.72 -162.37,104.17 -25.96,2.6 -47.6,0.29 -47.6,0.29 48.5,-80.04 89.44,-186.39 197.79,-252.57" /><path
         id="path450"
         style="fill:#383434;fill-opacity:1;fill-rule:evenodd;stroke:none"
         d="m 2168.24,2291.76 c -17.14,-106.91 -242.71,-72.45 -316.93,-201.05 -82.69,125.04 43.94,381.18 264.35,282.18 l 52.58,-81.13" /><path
         id="path452"
         style="fill:#383434;fill-opacity:1;fill-rule:evenodd;stroke:none"
         d="m 1947.24,2035.75 c 9.21,0 16.73,7.52 16.73,16.73 0,9.22 -7.52,16.74 -16.73,16.74 -9.22,0 -16.74,-7.52 -16.74,-16.74 0,-9.21 7.52,-16.73 16.74,-16.73" /><path
         id="path454"
         style="fill:#383434;fill-opacity:1;fill-rule:evenodd;stroke:none"
         d="m 2165.94,2035.75 c 9.21,0 16.73,7.52 16.73,16.73 0,9.22 -7.52,16.73 -16.73,16.73 -9.22,0 -16.74,-7.51 -16.74,-16.73 0,-9.21 7.52,-16.73 16.74,-16.73" /><path
         id="path456"
         style="fill:#e3aa6a;fill-opacity:1;fill-rule:evenodd;stroke:none"
         d="m 2022.01,1967.7 c -0.19,0.06 -0.23,0.23 -0.06,0.51 0,0.84 0.48,1.66 1.37,2.43 6.87,13.24 20.4,51.83 26.59,94.28 6.79,-0.41 -6.73,-72.25 -12.55,-89.39 5.88,1.02 13.06,1.62 20.8,1.62 20,0 36.21,-4.01 36.21,-8.94 0,-4.94 -16.21,-8.95 -36.21,-8.95 -19.3,0 -35.08,3.74 -36.15,8.44" /><path
         id="path458"
         style="fill:#383434;fill-opacity:1;fill-rule:evenodd;stroke:none"
         d="m 2105.61,2115.71 c -9.91,-4.11 6.56,22.75 55.29,23.81 56.8,1.24 74.09,-26.08 51.7,-18.24 -48.28,16.93 -91.27,0.95 -106.99,-5.57" /><path
         id="path460"
         style="fill:#383434;fill-opacity:1;fill-rule:evenodd;stroke:none"
         d="m 2007.54,2115.71 c 9.91,-4.11 -6.57,22.75 -55.29,23.81 -56.81,1.24 -74.09,-26.08 -51.71,-18.23 48.29,16.92 91.28,0.94 107,-5.58" /><path
         id="path462"
         style="fill:#525153;fill-opacity:1;fill-rule:evenodd;stroke:none"
         d="m 2037.04,2086.78 v 0 c -2.75,0.44 -4.94,1.44 -6.38,4.19 -2.64,5.08 -6.79,8.69 -11.79,11.57 -22.25,12.77 -87.09,14.6 -112.42,14.6 0,0 -22.79,-0.38 -33.8,-0.86 -9.01,-0.38 -16.3,-1.39 -24.94,-3.24 -1.72,-1.03 -2.28,-2.88 -2.21,-5.07 0.24,-7.56 0.51,-15.12 1.42,-22.63 0.16,-1.3 0.7,-2.44 1.94,-3.07 5.19,-2.62 7.4,-7.11 8.46,-12.62 4.33,-22.42 10.41,-45.33 23.3,-64.52 6.54,-9.74 15.63,-16.24 26.3,-20.83 28.01,-12.03 70.17,-14.26 95.76,5.87 12.53,9.86 22.47,31.91 27.31,46.57 2.78,8.39 5.35,16.83 7.18,25.48 0.39,1.85 0.64,3.73 0.84,5.6 0.28,2.67 1.21,3.67 3.97,3.51 12.87,-0.74 16.82,-0.74 29.69,0 2.76,0.16 3.69,-0.84 3.98,-3.51 0.19,-1.87 0.45,-3.75 0.84,-5.6 1.83,-8.65 4.4,-17.09 7.17,-25.48 4.85,-14.66 14.78,-36.71 27.31,-46.57 25.6,-20.13 67.75,-17.9 95.76,-5.87 10.68,4.59 19.76,11.09 26.31,20.83 12.88,19.19 18.96,42.1 23.29,64.52 1.06,5.51 3.27,10 8.46,12.62 1.24,0.63 1.78,1.77 1.94,3.07 0.91,7.51 1.19,15.07 1.42,22.63 0.07,2.19 -0.49,4.04 -2.2,5.07 -8.65,1.85 -15.94,2.86 -24.95,3.24 -11.01,0.48 -33.8,0.86 -33.8,0.86 -25.32,0 -90.16,-1.83 -112.41,-14.6 -5.01,-2.88 -9.15,-6.49 -11.8,-11.57 -1.43,-2.75 -3.62,-3.75 -6.37,-4.19 -13.14,-2.13 -26.44,-2.13 -39.58,0 z m -132.71,17.71 v 0 c -23.76,-2.49 -32.51,-13.02 -31.31,-37.45 2.4,-48.93 18.37,-75.55 67.86,-82.58 46.1,-6.54 73.33,13.36 82.26,62.15 2.96,16.18 1.8,35.21 -13.81,44.43 -25.31,14.95 -74.89,16.62 -105,13.45 z m 304.99,0 c 23.77,-2.49 32.51,-13.02 31.31,-37.45 -2.39,-48.93 -18.36,-75.55 -67.85,-82.58 -46.1,-6.54 -73.33,13.36 -82.27,62.15 -2.96,16.18 -1.8,35.21 13.82,44.43 25.3,14.95 74.89,16.62 104.99,13.45 v 0" /></g></g></svg>