<?xml version="1.0" encoding="UTF-8" standalone="no"?>
<svg
   xmlns:dc="http://purl.org/dc/elements/1.1/"
   xmlns:cc="http://creativecommons.org/ns#"
   xmlns:rdf="http://www.w3.org/1999/02/22-rdf-syntax-ns#"
   xmlns:svg="http://www.w3.org/2000/svg"
   xmlns="http://www.w3.org/2000/svg"
   viewBox="350 195 120 100"
   height="200"
   width="200"
   xml:space="preserve"
   id="svg2"
   version="1.1"><metadata
     id="metadata8"><rdf:RDF><cc:Work
         rdf:about=""><dc:format>image/svg+xml</dc:format><dc:type
           rdf:resource="http://purl.org/dc/dcmitype/StillImage" /></cc:Work></rdf:RDF></metadata><defs
     id="defs6" /><g
     transform="matrix(1.3333333,0,0,-1.3333333,0,666.66667)"
     id="g10"><g
       transform="scale(0.1)"
       id="g12"><path
         id="path392"
         style="fill:#eaeaac;fill-opacity:1;fill-rule:evenodd;stroke:none"
         d="m 3053.78,3433.01 c 50.5,0 91.69,32.66 91.69,72.7 0,40.05 -41.19,72.71 -91.69,72.71 -50.5,0 -91.7,-32.66 -91.7,-72.71 0,-40.04 41.2,-72.7 91.7,-72.7" /><path
         id="path394"
         style="fill:#f4ad69;fill-opacity:1;fill-rule:evenodd;stroke:none"
         d="m 3136.79,2807.81 c 4.62,3.46 104.8,79.13 104.8,79.13 45.91,-15.14 59.15,-145.35 63.82,-206.07 h -109.68 l -58.94,126.94" /><path
         id="path396"
         style="fill:#f4ad69;fill-opacity:1;fill-rule:evenodd;stroke:none"
         d="m 3042.78,2972.82 h -48.41 v -30.56 c 0.03,-19 -3.13,-15.05 -20.87,-24.92 0,0 -17.11,-14.03 -22.32,-15.7 21.51,-69.25 -67.38,-158.3 -25.33,-220.77 h 116.93 114.05 c 42.05,62.47 -31.31,149.8 -22.44,220.77 -5.21,1.67 -22.33,15.7 -22.33,15.7 -17.74,9.87 -20.9,5.92 -20.87,24.92 v 30.56 h -48.41" /><path
         id="path398"
         style="fill:#f4ad69;fill-opacity:1;fill-rule:evenodd;stroke:none"
         d="m 2951.4,2807.81 c -4.62,3.46 -104.8,79.13 -104.8,79.13 -45.91,-15.14 -59.15,-145.35 -63.82,-206.07 h 109.69 l 58.93,126.94" /><path
         id="path400"
         style="fill:#a1345b;fill-opacity:1;fill-rule:evenodd;stroke:none"
         d="m 2973.5,2917.34 c -31.82,-14.5 -113.14,-16.61 -131.53,-32.37 4.62,-10.12 11.04,-45.1 17.5,-87.82 -6.53,-43.59 -32.06,-74.89 -13.7,-116.28 h 30.01 167 1.32 1.31 167 30.01 c 18.36,41.39 -7.17,72.69 -13.7,116.28 6.46,42.72 12.82,77.73 17.44,87.85 -12.54,10.89 -121.48,26.6 -134.1,32.34 81.94,-245.56 -231.75,-236.47 -138.56,0" /><path
         id="path402"
         style="fill:#f5b870;fill-opacity:1;fill-rule:evenodd;stroke:none"
         d="m 2900.5,3192.98 c 8.02,-36.06 -7.92,-66.1 -35.24,-72.57 -27.3,-6.47 -55.61,13.08 -63.62,49.15 -8.03,36.06 7.59,70.56 34.9,77.02 27.31,6.48 55.94,-17.51 63.96,-53.6" /><path
         id="path404"
         style="fill:#f5b870;fill-opacity:1;fill-rule:evenodd;stroke:none"
         d="m 3195.72,3192.98 c -8.02,-36.06 7.92,-66.1 35.24,-72.57 27.31,-6.47 55.61,13.08 63.63,49.15 8.02,36.06 -7.6,70.56 -34.91,77.02 -27.3,6.48 -55.94,-17.51 -63.96,-53.6" /><path
         id="path406"
         style="fill:#f7c386;fill-opacity:1;fill-rule:evenodd;stroke:none"
         d="m 3048.11,3504.93 -0.62,-0.02 c -14.46,0.57 -28.47,1.13 -28.47,1.13 l 0.06,-2.26 c -1.85,-0.07 -2.98,-0.12 -2.98,-0.12 -57.78,-2.3 -112.19,-33.43 -147.08,-80.83 -34.92,-47.45 -39.56,-107.21 -36.81,-164.43 7.08,-147.04 89.44,-312.14 215.9,-313.36 126.46,1.22 208.83,166.32 215.9,313.36 2.75,57.22 -1.89,116.98 -36.81,164.43 -34.89,47.4 -89.29,78.53 -147.07,80.83 0,0 -1.13,0.05 -2.99,0.12 l 0.06,2.26 c 0,0 -14,-0.56 -28.47,-1.13 l -0.62,0.02" /><path
         id="path408"
         style="fill:#eaeaac;fill-opacity:1;fill-rule:evenodd;stroke:none"
         d="m 3143.81,3443.09 c -1.73,-8.08 -0.18,-51.37 49.63,-117.71 49.81,-66.35 53.66,-72.13 53.66,-72.13 0,0 -0.15,-105.17 0.43,-99.98 0.58,5.2 22.54,105.54 22.54,105.54 0,0 12.81,55.6 0.11,107.53 -12.69,51.94 -28.71,71.52 -50.72,80.27 -22.01,8.76 -75.65,-3.52 -75.65,-3.52" /><path
         id="path410"
         style="fill:#eaeaac;fill-opacity:1;fill-rule:evenodd;stroke:none"
         d="m 2860.42,3307.74 c -8.65,-9.81 -29.69,-63.02 -29.69,-63.02 l 18.62,-90.92 11.07,153.94" /><path
         id="path412"
         style="fill:#f7f7c2;fill-opacity:1;fill-rule:evenodd;stroke:none"
         d="m 3247.1,3253.25 c 2.27,37.91 15.89,129.35 6.36,152.97 -27.49,68.13 -77.85,95.72 -162.37,104.17 -25.97,2.59 -47.61,0.29 -47.61,0.29 48.51,-80.05 95.27,-191.27 203.62,-257.43" /><path
         id="path414"
         style="fill:#f7f7b4;fill-opacity:1;fill-rule:evenodd;stroke:none"
         d="m 3159.77,3427.35 c -17.14,-106.91 -242.71,-72.44 -316.93,-201.04 -15.76,-27.3 -81.61,282.85 206.36,284.82 l 110.57,-83.78" /><path
         id="path416"
         style="fill:darkslategrey;fill-opacity:1;fill-rule:evenodd;stroke:none"
         d="m 2948.76,3162.08 c 9.22,0 16.74,7.51 16.74,16.73 0,9.22 -7.52,16.73 -16.74,16.73 -9.21,0 -16.73,-7.51 -16.73,-16.73 0,-9.22 7.52,-16.73 16.73,-16.73" /><path
         id="path418"
         style="fill:darkslategrey;fill-opacity:1;fill-rule:evenodd;stroke:none"
         d="m 3147.46,3162.08 c 9.22,0 16.73,7.51 16.73,16.73 0,9.22 -7.51,16.73 -16.73,16.73 -9.21,0 -16.73,-7.51 -16.73,-16.73 0,-9.22 7.52,-16.73 16.73,-16.73" /><path
         id="path420"
         style="fill:#e3aa6a;fill-opacity:1;fill-rule:evenodd;stroke:none"
         d="m 3011.3,3094.03 c -0.2,0.06 -0.23,0.22 -0.06,0.5 0,0.85 0.48,1.67 1.36,2.44 6.88,13.24 20.4,51.83 26.59,94.28 6.8,-0.42 -6.73,-72.25 -12.55,-89.4 5.89,1.03 13.06,1.63 20.81,1.63 20,0 36.21,-4.01 36.21,-8.95 0,-4.93 -16.21,-8.94 -36.21,-8.94 -19.31,0 -35.09,3.74 -36.15,8.44" /><path
         id="path422"
         style="fill:#1a1a1a;fill-opacity:1;fill-rule:evenodd;stroke:none"
         d="m 3087.54,3221.68 c -9.91,-4.11 6.57,22.75 55.3,23.82 56.8,1.23 74.08,-26.09 51.7,-18.24 -48.28,16.92 -91.28,0.94 -107,-5.58" /><path
         id="path424"
         style="fill:#1a1a1a;fill-opacity:1;fill-rule:evenodd;stroke:none"
         d="m 3008.68,3221.68 c 9.91,-4.11 -6.56,22.76 -55.29,23.82 -56.8,1.23 -74.09,-26.09 -51.71,-18.24 48.29,16.93 91.28,0.94 107,-5.58" /><path
         id="path426"
         style="fill:#d5724d;fill-opacity:1;fill-rule:evenodd;stroke:none"
         d="m 3088.58,3045.14 c -7.44,-41.89 -74.95,-41.89 -82.4,0 20.14,-4.64 57.78,-4.66 82.4,0" /></g></g></svg>