<?xml version="1.0" encoding="UTF-8" standalone="no"?>
<svg
   xmlns:dc="http://purl.org/dc/elements/1.1/"
   xmlns:cc="http://creativecommons.org/ns#"
   xmlns:rdf="http://www.w3.org/1999/02/22-rdf-syntax-ns#"
   xmlns:svg="http://www.w3.org/2000/svg"
   xmlns="http://www.w3.org/2000/svg"
   viewBox="480 200 120 100"
   height="200"
   width="200"
   xml:space="preserve"
   id="svg2"
   version="1.1"><metadata
     id="metadata8"><rdf:RDF><cc:Work
         rdf:about=""><dc:format>image/svg+xml</dc:format><dc:type
           rdf:resource="http://purl.org/dc/dcmitype/StillImage" /></cc:Work></rdf:RDF></metadata><defs
     id="defs6" /><g
     transform="matrix(1.3333333,0,0,-1.3333333,0,666.66667)"
     id="g10"><g
       transform="scale(0.1)"
       id="g12"><path
         id="path158"
         style="fill:#974731;fill-opacity:1;fill-rule:evenodd;stroke:none"
         d="m 3956.15,2807.81 c -4.62,3.46 -107.75,52.01 -107.75,52.01 -45.9,-15.14 -56.2,-118.23 -60.87,-178.95 h 109.68 l 58.94,126.94" /><path
         id="path160"
         style="fill:#974731;fill-opacity:1;fill-rule:evenodd;stroke:none"
         d="m 4138.91,2807.81 c 4.62,3.46 107.75,52.01 107.75,52.01 45.91,-15.14 56.2,-118.23 60.88,-178.95 h -109.69 l -58.94,126.94" /><path
         id="path162"
         style="fill:#f4ad69;fill-opacity:1;fill-rule:evenodd;stroke:none"
         d="m 4047.53,2972.82 h -48.41 v -30.56 c 0.03,-19 -3.13,-15.05 -20.87,-24.92 0,0 -17.11,-14.03 -22.32,-15.7 21.51,-69.25 37.06,-158.3 79.11,-220.77 h 12.49 12.49 c 42.05,62.47 57.6,151.52 79.11,220.77 -5.21,1.67 -22.32,15.7 -22.32,15.7 -17.74,9.87 -20.9,5.92 -20.87,24.92 v 30.56 h -48.41" /><path
         id="path164"
         style="fill:#a64d38;fill-opacity:1;fill-rule:evenodd;stroke:none"
         d="m 3978.23,2917.09 c -25.8,-11.76 -119.89,-48.62 -130.43,-57.75 8.56,-18.71 21.52,-95.71 32.73,-178.47 h 167 167 c 11.21,82.76 24.18,159.76 32.73,178.47 -10.54,9.13 -104.62,45.99 -130.43,57.75 33.03,-25.63 -51.38,-96.9 -69.3,-118.11 l -35.76,39.71 c -2.73,7.09 -64.75,54.19 -33.54,78.4" /><path
         id="path166"
         style="fill:#8f402d;fill-opacity:1;fill-rule:evenodd;stroke:none"
         d="m 4039.74,2802.51 7.79,-3.84 7.79,3.84 v -121.64 h -15.58 v 121.64" /><path
         id="path168"
         style="fill:#f5b870;fill-opacity:1;fill-rule:evenodd;stroke:none"
         d="m 4177.05,3193.92 c -6.93,-36.07 16.42,-66.11 52.17,-72.58 35.73,-6.46 70.3,13.08 77.21,49.15 6.92,36.07 -16.41,70.56 -52.15,77.03 -35.73,6.47 -70.31,-17.52 -77.23,-53.6" /><path
         id="path170"
         style="fill:#f5b870;fill-opacity:1;fill-rule:evenodd;stroke:none"
         d="m 3927.7,3193.92 c 6.92,-36.07 -16.42,-66.11 -52.16,-72.58 -35.74,-6.46 -70.31,13.08 -77.22,49.15 -6.93,36.07 16.42,70.56 52.15,77.03 35.73,6.47 70.31,-17.52 77.23,-53.6" /><path
         id="path172"
         style="fill:#f7c386;fill-opacity:1;fill-rule:evenodd;stroke:none"
         d="m 4230.71,3422.83 c -34.89,47.4 -89.3,78.53 -147.07,80.83 -0.02,0 -1.14,0.05 -3,0.12 l 0.06,2.26 c 0,0 -14,-0.56 -28.46,-1.14 -14.46,0.58 -28.47,1.14 -28.47,1.14 l 0.06,-2.26 c -1.85,-0.07 -2.98,-0.12 -2.98,-0.12 -57.78,-2.3 -112.19,-33.43 -147.08,-80.83 -34.92,-47.45 -39.56,-107.21 -36.81,-164.43 7.08,-147.04 20.23,-311.73 215.9,-313.36 196.27,-1.65 207.59,167.36 214.66,313.36 2.74,57.22 -1.89,116.98 -36.81,164.43" /><path
         id="path174"
         style="fill:#ba8c30;fill-opacity:1;fill-rule:evenodd;stroke:none"
         d="m 4262.5,3181.18 c 0,5.7 30.71,157.74 23.34,222.42 -7.37,64.68 -49.74,67.73 -58.95,69.03 -9.21,1.3 -13.81,3.99 -13.81,3.99 0,0 -37.77,29.66 -113.29,48.29 -75.52,18.63 -182.33,-37.84 -240.66,-5.84 -28.02,-29.51 -11.7,-86.65 -11.7,-86.65 0,0 -21.18,-7.83 -26.71,-36.84 -5.52,-29.01 21.52,-215.61 21.52,-215.61 0,0 11.64,143.87 29.14,164.11 0,0 124.58,-22.8 349.75,62.53 45.67,17.31 29.91,-170.83 41.37,-225.43" /><path
         id="path176"
         style="fill:#383434;fill-opacity:1;fill-rule:evenodd;stroke:none"
         d="m 3942.89,3156.47 c 9.21,0 16.73,7.51 16.73,16.73 0,9.22 -7.52,16.74 -16.73,16.74 -9.22,0 -16.74,-7.52 -16.74,-16.74 0,-9.22 7.52,-16.73 16.74,-16.73" /><path
         id="path178"
         style="fill:#383434;fill-opacity:1;fill-rule:evenodd;stroke:none"
         d="m 4161.59,3156.47 c 9.21,0 16.73,7.52 16.73,16.73 0,9.22 -7.52,16.74 -16.73,16.74 -9.22,0 -16.73,-7.52 -16.73,-16.74 0,-9.21 7.51,-16.73 16.73,-16.73" /><path
         id="path180"
         style="fill:#ba8c30;fill-opacity:1;fill-rule:evenodd;stroke:none"
         d="m 3889.73,3225.1 c -5.41,9.27 23.58,13.65 52.98,13.43 49.32,-0.36 75.69,-24.46 52,-23.43 -17.71,0.77 -103.39,7.29 -104.98,10" /><path
         id="path182"
         style="fill:#ba8c30;fill-opacity:1;fill-rule:evenodd;stroke:none"
         d="m 4214.7,3223 c 5.59,9.16 -23.31,14.11 -52.71,14.47 -49.31,0.63 -76.16,-22.95 -52.45,-22.39 17.72,0.42 103.52,5.24 105.16,7.92" /><path
         id="path184"
         style="fill:#d5724d;fill-opacity:1;fill-rule:evenodd;stroke:none"
         d="m 4115.74,3059.23 c -10.22,-57.49 -102.88,-57.49 -113.09,0 30.71,-41.01 82.38,-41.01 113.09,0" /><path
         id="path186"
         style="fill:#e3aa6a;fill-opacity:1;fill-rule:evenodd;stroke:none"
         d="m 4021.42,3089 c -0.2,0.07 -0.24,0.23 -0.06,0.51 0,0.84 0.47,1.66 1.36,2.44 6.88,13.23 20.4,51.82 26.59,94.28 6.8,-0.42 -6.73,-72.26 -12.55,-89.4 5.89,1.02 13.06,1.62 20.81,1.62 19.99,0 36.2,-4 36.2,-8.94 0,-4.94 -16.21,-8.95 -36.2,-8.95 -19.31,0 -35.09,3.74 -36.15,8.44" /><path
         id="path188"
         style="fill:#d9694d;fill-opacity:1;fill-rule:evenodd;stroke:none"
         d="m 3955.38,2860.05 c 37.92,-48.1 94.27,-64.62 92.15,-61.07 -2.12,3.55 -55.51,76.65 -59.55,96.85 -4.04,20.2 8.26,31.44 8.26,31.44 4.16,4.91 2.88,15.81 2.88,23.04 -56,1.45 -81.66,-42.15 -43.74,-90.26" /><path
         id="path190"
         style="fill:#d9694d;fill-opacity:1;fill-rule:evenodd;stroke:none"
         d="m 4139.68,2860.05 c -37.92,-48.1 -94.27,-64.62 -92.15,-61.07 2.12,3.55 55.51,76.65 59.55,96.85 4.04,20.2 -8.26,31.44 -8.26,31.44 -4.16,4.91 -2.88,15.81 -2.88,23.04 56,1.45 81.67,-42.15 43.74,-90.26" /></g></g></svg>