<?xml version="1.0" encoding="UTF-8" standalone="no"?>
<svg
   xmlns:dc="http://purl.org/dc/elements/1.1/"
   xmlns:cc="http://creativecommons.org/ns#"
   xmlns:rdf="http://www.w3.org/1999/02/22-rdf-syntax-ns#"
   xmlns:svg="http://www.w3.org/2000/svg"
   xmlns="http://www.w3.org/2000/svg"
   viewBox="220 490 120 100"
   height="200"
   width="200"
   xml:space="preserve"
   id="svg2"
   version="1.1"><metadata
     id="metadata8"><rdf:RDF><cc:Work
         rdf:about=""><dc:format>image/svg+xml</dc:format><dc:type
           rdf:resource="http://purl.org/dc/dcmitype/StillImage" /></cc:Work></rdf:RDF></metadata><defs
     id="defs6" /><g
     transform="matrix(1.3333333,0,0,-1.3333333,0,666.66667)"
     id="g10"><g
       transform="scale(0.1)"
       id="g12"><path
         id="path550"
         style="fill:#2f2e37;fill-opacity:1;fill-rule:evenodd;stroke:none"
         d="m 1961.13,578.57 c -4.61,3.461 -107.74,52.02 -107.74,52.02 -45.91,-15.149 -56.21,-118.238 -60.88,-178.961 h 109.69 l 58.93,126.941" /><path
         id="path552"
         style="fill:#2f2e37;fill-opacity:1;fill-rule:evenodd;stroke:none"
         d="m 2143.9,578.57 c 4.62,3.461 107.74,52.02 107.74,52.02 45.91,-15.149 56.21,-118.238 60.88,-178.961 H 2202.83 L 2143.9,578.57" /><path
         id="path554"
         style="fill:#f4ad69;fill-opacity:1;fill-rule:evenodd;stroke:none"
         d="m 2052.52,743.582 h -48.41 V 713.02 c 0.03,-19 -3.13,-15.051 -20.88,-24.918 0,0 -17.11,-14.032 -22.32,-15.692 21.51,-69.262 43.93,-134.308 85.98,-196.781 h 12.49 12.48 c 42.05,62.473 50.75,127.519 72.26,196.781 -5.21,1.66 -22.32,15.692 -22.32,15.692 -17.74,9.867 -20.91,5.918 -20.88,24.918 v 30.562 h -48.4" /><path
         id="path556"
         style="fill:#b2da21;fill-opacity:1;fill-rule:evenodd;stroke:none"
         d="m 2052.52,577.141 c -79.94,6.308 -68.39,110.199 -69.31,110.711 -25.8,-11.762 -119.88,-48.622 -130.42,-57.75 8.55,-18.711 21.51,-95.711 32.72,-178.473 h 167.01 167 c 11.21,82.762 24.17,159.762 32.72,178.473 -10.53,9.128 -104.62,45.988 -130.42,57.75 -0.91,-0.512 10.63,-104.403 -69.3,-110.711" /><path
         id="path558"
         style="fill:#f5b870;fill-opacity:1;fill-rule:evenodd;stroke:none"
         d="m 2182.04,959.121 c -6.93,-39.359 16.41,-72.152 52.16,-79.223 35.74,-7.046 70.3,14.282 77.21,53.661 6.93,39.363 -16.41,77.011 -52.14,84.071 -35.73,7.07 -70.31,-19.118 -77.23,-58.509" /><path
         id="path560"
         style="fill:#f5b870;fill-opacity:1;fill-rule:evenodd;stroke:none"
         d="m 1932.69,959.121 c 6.92,-39.359 -16.42,-72.152 -52.17,-79.223 -35.73,-7.046 -70.3,14.282 -77.22,53.661 -6.93,39.363 16.42,77.011 52.16,84.071 35.73,7.07 70.3,-19.118 77.23,-58.509" /><path
         id="path562"
         style="fill:#f7c386;fill-opacity:1;fill-rule:evenodd;stroke:none"
         d="m 2235.7,1193.59 c -34.9,47.4 -89.31,78.53 -147.08,80.83 -0.01,0 -1.14,0.05 -3,0.12 l 0.07,2.26 c 0,0 -14,-0.56 -28.46,-1.13 -14.47,0.57 -28.47,1.13 -28.47,1.13 l 0.06,-2.26 c -1.86,-0.07 -2.99,-0.12 -2.99,-0.12 -57.78,-2.3 -112.18,-33.43 -147.08,-80.83 -34.92,-47.45 -39.56,-107.21 -36.81,-164.43 2.09,-43.238 9.74,-113.051 11.89,-156.308 55.53,-207.711 355.04,-211.11 406.79,0 2.15,43.257 9.79,113.07 11.88,156.308 2.75,57.22 -1.88,116.98 -36.8,164.43" /><path
         id="path564"
         style="fill:#952e20;fill-opacity:1;fill-rule:evenodd;stroke:none"
         d="m 1880.38,1113.95 c -2.75,-5.99 13.11,54.01 47.9,55.04 36.43,1.09 262.8,-12.68 274.39,2.47 38.36,-48.55 66.37,-241.062 68.55,-240.628 5.1,0.988 5.69,19.859 6.2,23.898 3.66,28.399 4.65,57.52 4.63,86.1 -0.06,52.77 15.27,154.38 -80.21,217.69 -58.73,38.95 -180.12,42.83 -247.7,20.78 -47.07,-15.37 -92.2,-55.37 -108.98,-101.99 -18.41,-51.18 -17.95,-91.18 -11.88,-192.54 0.66,-11 1.96,-22.02 3.48,-32.911 1.01,-7.257 1.95,-14.687 3.71,-21.789 9.57,-38.621 10.48,138.26 39.91,183.88" /><path
         id="path566"
         style="fill:#383434;fill-opacity:1;fill-rule:evenodd;stroke:none"
         d="m 1947.87,927.391 c 9.22,0 16.74,7.519 16.74,16.738 0,9.223 -7.52,16.73 -16.74,16.73 -9.21,0 -16.73,-7.507 -16.73,-16.73 0,-9.219 7.52,-16.738 16.73,-16.738" /><path
         id="path568"
         style="fill:#383434;fill-opacity:1;fill-rule:evenodd;stroke:none"
         d="m 2166.57,926.238 c 9.22,0 16.74,7.524 16.74,16.731 0,9.222 -7.52,16.742 -16.74,16.742 -9.21,0 -16.73,-7.52 -16.73,-16.742 0,-9.207 7.52,-16.731 16.73,-16.731" /><path
         id="path570"
         style="fill:#952e20;fill-opacity:1;fill-rule:evenodd;stroke:none"
         d="m 1890.3,990.461 c -6.12,8.82 22.45,15.439 51.78,17.519 49.18,3.49 77.36,-18.48 53.66,-19.3 -17.71,-0.61 -103.65,-0.801 -105.44,1.781" /><path
         id="path572"
         style="fill:#952e20;fill-opacity:1;fill-rule:evenodd;stroke:none"
         d="m 2214.38,989.988 c 6.46,8.571 -21.83,16.302 -51.06,19.522 -49.01,5.41 -78.02,-15.451 -54.37,-17.19 17.67,-1.3 103.54,-4.851 105.43,-2.332" /><path
         id="path574"
         style="fill:#d5724d;fill-opacity:1;fill-rule:evenodd;stroke:none"
         d="m 2112.6,824.949 c -10.22,-57.488 -102.88,-57.488 -113.1,0 27.64,-6.359 79.31,-6.39 113.1,0" /><path
         id="path576"
         style="fill:#e3aa6a;fill-opacity:1;fill-rule:evenodd;stroke:none"
         d="m 2020,858.77 c -0.19,0.062 -0.23,0.23 -0.05,0.5 0,0.851 0.47,1.671 1.36,2.441 6.87,13.238 20.4,51.828 26.59,94.277 6.79,-0.418 -6.73,-72.25 -12.55,-89.398 5.88,1.031 13.06,1.629 20.8,1.629 20,0 36.21,-4.008 36.21,-8.949 0,-4.938 -16.21,-8.938 -36.21,-8.938 -19.3,0 -35.08,3.727 -36.15,8.438" /><path
         id="path578"
         style="fill:#952e20;fill-opacity:1;fill-rule:evenodd;stroke:none"
         d="m 1878.36,1143.98 c -3.86,22.71 -22.72,24 -19.29,50.57 3.43,26.57 43.29,78.43 65.14,99.43 21.86,21 47.57,27.86 47.57,27.86 0,0 -14.57,-23.57 -8.57,-17.57 6,6 36,20.15 48.85,28.3 12.86,8.14 18.86,16.7 17.15,12.42 -1.72,-4.28 -9.86,-19.71 -3.86,-15.86 6,3.86 21.86,4.29 40.71,23.15 18.86,18.86 30.86,43.71 29.14,39.42 -1.71,-4.28 27,-38.14 36.43,-55.28 9.43,-17.14 10.72,-27.42 12.86,-22.71 2.14,4.71 10.71,22.28 10.71,22.28 0,0 35.15,-30.85 48.86,-49.7 13.72,-18.86 16.72,-32.15 18.43,-27.43 1.71,4.71 5.14,16.28 5.14,16.28 0,0 18.43,-45.85 13.29,-68.99 -5.14,-23.15 -15.96,-51.83 -15.96,-51.83 0,0 -125.47,-32.17 -170.04,-32.6 -21.1,-0.21 -156.37,37.06 -158.99,47.57 l -17.57,-25.31" /><path
         id="path580"
         style="fill:#d79654;fill-opacity:1;fill-rule:evenodd;stroke:none"
         d="m 2052.52,577.141 c -79.94,6.308 -68.39,110.199 -69.31,110.711 -0.21,-0.09 -0.43,-0.192 -0.65,-0.301 -5.11,-2.301 -12.64,-5.512 -21.55,-9.242 -0.07,-1.868 -0.1,-3.758 -0.1,-5.649 0,-0.09 0,-0.172 0,-0.25 0.06,-37 12.39,-70.101 31.78,-92.301 15.66,-17.918 35.93,-28.73 58.08,-28.73 30.99,0 58.32,21.172 74.47,53.391 7.92,15.789 13.15,34.23 14.81,54.121 0.38,4.519 0.58,9.109 0.58,13.769 0,0.5 0,1 -0.01,1.512 -0.02,1.879 -0.06,3.758 -0.14,5.629 -7.36,3.09 -13.59,5.758 -18.01,7.75 -0.22,0.101 -0.44,0.211 -0.65,0.301 -0.91,-0.512 10.63,-104.403 -69.3,-110.711" /></g></g></svg>