<?xml version="1.0" encoding="UTF-8" standalone="no"?>
<svg
   xmlns:dc="http://purl.org/dc/elements/1.1/"
   xmlns:cc="http://creativecommons.org/ns#"
   xmlns:rdf="http://www.w3.org/1999/02/22-rdf-syntax-ns#"
   xmlns:svg="http://www.w3.org/2000/svg"
   xmlns="http://www.w3.org/2000/svg"
   viewBox="350 500 120 100"
   height="200"
   width="200"
   xml:space="preserve"
   id="svg2"
   version="1.1"><metadata
     id="metadata8"><rdf:RDF><cc:Work
         rdf:about=""><dc:format>image/svg+xml</dc:format><dc:type
           rdf:resource="http://purl.org/dc/dcmitype/StillImage" /></cc:Work></rdf:RDF></metadata><defs
     id="defs6" /><g
     transform="matrix(1.3333333,0,0,-1.3333333,0,666.66667)"
     id="g10"><g
       transform="scale(0.1)"
       id="g12"><path
         id="path116"
         style="fill:#ba8c30;fill-opacity:1;fill-rule:evenodd;stroke:none"
         d="m 2875.62,4375.24 c -5.41,9.27 23.58,13.64 52.98,13.43 49.32,-0.36 75.69,-24.46 52,-23.44 -17.71,0.78 -103.4,7.29 -104.98,10.01" /><path
         id="path582"
         style="fill:#2f2e37;fill-opacity:1;fill-rule:evenodd;stroke:none"
         d="m 2052.52,577.141 c -79.94,6.308 -68.39,110.199 -69.31,110.711 -0.21,-0.09 -0.43,-0.192 -0.65,-0.301 -5.11,-2.301 -12.64,-5.512 -21.55,-9.242 -0.07,-1.868 -0.1,-3.758 -0.1,-5.649 0,-0.09 0,-0.172 0,-0.25 0.06,-37 12.39,-70.101 31.78,-92.301 15.66,-17.918 35.93,-28.73 58.08,-28.73 30.99,0 58.32,21.172 74.47,53.391 7.92,15.789 13.15,34.23 14.81,54.121 0.38,4.519 0.58,9.109 0.58,13.769 0,0.5 0,1 -0.01,1.512 l -0.14,5.629 c -7.36,3.09 -13.59,5.758 -18.01,7.75 -0.22,0.101 -0.44,0.211 -0.65,0.301 -0.91,-0.512 10.63,-104.403 -69.3,-110.711" /><path
         id="path584"
         style="fill:#5b301b;fill-opacity:1;fill-rule:evenodd;stroke:none"
         d="m 2902.3,1193.59 c -12.27,-19.34 -41.27,-87.85 -48.56,-106.71 -7.3,-18.86 -10.38,-147.31 64.18,-250.591 74.57,-103.277 237.61,-91.797 240.6,-97.59 7.53,-14.597 15.11,0.442 30.28,-15.707 0,0 67.9,62.246 89.57,165.43 21.67,103.18 -6.86,176.568 -6.86,176.568 l -369.21,128.6" /><path
         id="path586"
         style="fill:#f17991;fill-opacity:1;fill-rule:evenodd;stroke:none"
         d="m 3159.84,744.082 c -4.72,-1.711 -15.18,-19.582 -11.75,-30.082 3.43,-10.5 46.03,-21.711 51.6,-16.57 35.86,33.101 -22.44,52.98 -39.85,46.652" /><path
         id="path588"
         style="fill:#f4ad69;fill-opacity:1;fill-rule:evenodd;stroke:none"
         d="m 3170.07,578.57 c 4.62,3.461 104.8,79.129 104.8,79.129 45.91,-15.148 59.15,-145.347 63.82,-206.07 h -109.68 l -58.94,126.941" /><path
         id="path590"
         style="fill:#f4ad69;fill-opacity:1;fill-rule:evenodd;stroke:none"
         d="m 3076.06,743.582 h -48.4 V 713.02 c 0.05,-36.231 -96.27,-39.528 -128.94,-49.969 11.83,-63.711 -8.66,-91.77 168.28,-198.559 h 12.49 12.49 c 85.76,31.18 150.9,69.41 167.27,197.797 -33.53,10.723 -134.84,13.871 -134.78,50.731 v 30.562 h -48.41" /><path
         id="path592"
         style="fill:#f4ad69;fill-opacity:1;fill-rule:evenodd;stroke:none"
         d="m 2951.25,557.141 c -4.61,3.461 -71.37,100.558 -71.37,100.558 -45.9,-15.148 -59.15,-145.347 -63.82,-206.07 h 109.68 l 25.51,105.512" /><path
         id="path594"
         style="fill:#75535f;fill-opacity:1;fill-rule:evenodd;stroke:none"
         d="m 2898.79,663.07 -0.07,-0.019 -0.55,-0.129 -0.54,-0.121 -0.54,-0.129 -0.53,-0.121 -0.53,-0.129 -0.53,-0.133 -1.04,-0.25 -0.51,-0.117 -0.5,-0.133 -0.5,-0.129 h -0.03 l -0.46,-0.121 -0.5,-0.129 -0.48,-0.121 -0.48,-0.129 -0.47,-0.121 -0.47,-0.129 -1.25,-0.328 -0.12,-0.043 -0.44,-0.117 -0.44,-0.121 -0.44,-0.129 -0.42,-0.121 -0.43,-0.121 -0.41,-0.121 -0.34,-0.098 -0.07,-0.02 -0.4,-0.132 -0.4,-0.118 -0.37,-0.109 -0.02,-0.012 -0.38,-0.121 -0.75,-0.238 -0.27,-0.09 -0.1,-0.031 -1.04,-0.36 -0.18,-0.07 -0.16,-0.051 -0.65,-0.238 -0.32,-0.121 -0.28,-0.102 -0.8,-0.328 -0.25,-0.101 c -0.3,-0.129 -0.59,-0.25 -0.87,-0.379 l -0.03,-0.02 -0.03,-0.011 c -0.3,-0.137 -0.58,-0.278 -0.84,-0.411 l -0.06,-0.027 c -0.24,-0.121 -0.47,-0.25 -0.68,-0.371 l -0.09,-0.051 -0.04,-0.027 c -0.21,-0.133 -0.41,-0.262 -0.6,-0.383 l -0.04,-0.019 -0.01,-0.02 c -0.2,-0.141 -0.38,-0.281 -0.54,-0.418 4.63,-10.121 10.79,-44.703 17.25,-87.422 -6.53,-43.59 -32.06,-74.89 -13.7,-116.281 h 30.01 167 1.32 1.31 167 30.01 c 18.36,41.391 -7.16,72.691 -13.7,116.281 6.46,42.719 12.62,77.301 17.25,87.422 -0.16,0.137 -0.33,0.277 -0.53,0.418 l -0.02,0.02 -0.04,0.019 c -0.18,0.121 -0.39,0.25 -0.6,0.383 l -0.04,0.027 -0.09,0.051 c -0.21,0.121 -0.44,0.25 -0.68,0.371 l -0.06,0.027 c -0.26,0.133 -0.54,0.274 -0.84,0.411 l -0.03,0.011 -0.03,0.02 -0.87,0.379 -0.25,0.101 -0.8,0.328 -0.28,0.102 -0.31,0.121 -0.66,0.238 -0.15,0.051 -0.19,0.07 -1.04,0.36 -0.1,0.031 -0.27,0.09 -0.75,0.238 -0.38,0.121 -0.01,0.012 -0.38,0.109 -0.4,0.118 -0.4,0.132 -0.07,0.02 -0.34,0.098 -0.41,0.121 -0.43,0.121 -0.42,0.121 -0.44,0.129 -0.43,0.121 -0.45,0.117 -0.11,0.043 -1.26,0.328 -0.47,0.129 -0.47,0.121 -0.48,0.129 -0.48,0.121 -0.49,0.129 -0.47,0.121 h -0.03 l -0.5,0.129 -0.5,0.133 -0.51,0.117 -1.04,0.25 -0.53,0.133 -0.52,0.129 -0.54,0.121 -0.54,0.129 -0.54,0.121 -0.55,0.129 -0.07,0.019 c -23.49,-77.82 -94.55,-134.39 -178.58,-134.39 -84.04,0 -155.1,56.57 -178.59,134.39" /><path
         id="path596"
         style="fill:#f5b870;fill-opacity:1;fill-rule:evenodd;stroke:none"
         d="m 2933.78,982.211 c 8.03,-36.07 -7.92,-66.109 -35.23,-72.582 -27.31,-6.457 -55.62,13.082 -63.63,49.152 -8.03,36.071 7.59,70.559 34.9,77.029 27.31,6.47 55.94,-17.52 63.96,-53.599" /><path
         id="path598"
         style="fill:#f5b870;fill-opacity:1;fill-rule:evenodd;stroke:none"
         d="m 3229,982.211 c -8.02,-36.07 7.93,-66.109 35.24,-72.582 27.31,-6.457 55.61,13.082 63.63,49.152 8.02,36.071 -7.6,70.559 -34.91,77.029 -27.3,6.47 -55.93,-17.52 -63.96,-53.599" /><path
         id="path600"
         style="fill:#f7c386;fill-opacity:1;fill-rule:evenodd;stroke:none"
         d="m 3081.39,1275.69 -0.62,-0.02 c -14.46,0.57 -28.47,1.13 -28.47,1.13 l 0.06,-2.26 c -1.85,-0.07 -2.98,-0.12 -2.98,-0.12 -57.78,-2.3 -112.19,-33.43 -147.08,-80.83 -34.92,-47.45 -39.56,-107.2 -36.81,-164.43 7.08,-147.039 89.44,-312.14 215.9,-313.359 126.46,1.219 208.83,166.32 215.91,313.359 2.74,57.23 -1.9,116.98 -36.82,164.43 -34.89,47.4 -89.29,78.53 -147.07,80.83 0,0 -1.13,0.05 -2.99,0.12 l 0.06,2.26 c 0,0 -14.01,-0.56 -28.47,-1.13 l -0.62,0.02" /><path
         id="path602"
         style="fill:#5b301b;fill-opacity:1;fill-rule:evenodd;stroke:none"
         d="m 3171.26,1218.72 c -1.73,-8.08 -0.18,-51.37 49.63,-117.72 49.81,-66.34 53.66,-72.13 53.66,-72.13 0,0 2.31,-111.948 8.65,-98.671 6.35,13.27 15.41,109.651 15.41,109.651 0,0 11.72,50.19 -0.97,102.12 -12.7,51.94 -28.72,71.52 -50.73,80.27 -22.01,8.75 -75.65,-3.52 -75.65,-3.52" /><path
         id="path604"
         style="fill:#5b301b;fill-opacity:1;fill-rule:evenodd;stroke:none"
         d="m 2893.7,1078.5 c -8.66,-9.81 -36.78,-10.86 -36.78,-10.86 1.23,-9.08 13.33,-145.71 24.69,-136.031 l 12.09,146.891" /><path
         id="path606"
         style="fill:#5b301b;fill-opacity:1;fill-rule:evenodd;stroke:none"
         d="m 3274.55,1028.87 c 2.27,37.91 21.72,124.49 12.19,148.11 -27.5,68.13 -77.85,95.72 -162.37,104.17 -25.97,2.59 -47.61,0.29 -47.61,0.29 48.51,-80.05 89.44,-186.4 197.79,-252.57" /><path
         id="path608"
         style="fill:#5b301b;fill-opacity:1;fill-rule:evenodd;stroke:none"
         d="m 3193.05,1198.11 c -17.14,-106.91 -242.71,-72.44 -316.93,-201.04 -82.7,125.04 43.93,381.17 264.34,282.18 l 52.59,-81.14" /><path
         id="path610"
         style="fill:#383434;fill-opacity:1;fill-rule:evenodd;stroke:none"
         d="m 2992.04,936.969 c 9.22,0 16.74,7.519 16.74,16.742 0,9.219 -7.52,16.73 -16.74,16.73 -9.22,0 -16.73,-7.511 -16.73,-16.73 0,-9.223 7.51,-16.742 16.73,-16.742" /><path
         id="path612"
         style="fill:#383434;fill-opacity:1;fill-rule:evenodd;stroke:none"
         d="m 3180.74,936.969 c 9.22,0 16.74,7.519 16.74,16.742 0,9.219 -7.52,16.73 -16.74,16.73 -9.21,0 -16.73,-7.511 -16.73,-16.73 0,-9.223 7.52,-16.742 16.73,-16.742" /><path
         id="path614"
         style="fill:#e3aa6a;fill-opacity:1;fill-rule:evenodd;stroke:none"
         d="m 3054.36,868.352 c -0.2,0.058 -0.23,0.23 -0.06,0.507 0,0.84 0.48,1.661 1.37,2.43 6.87,13.242 20.39,51.832 26.59,94.281 6.79,-0.41 -6.73,-72.25 -12.56,-89.398 5.89,1.027 13.07,1.629 20.81,1.629 20,0 36.21,-4.012 36.21,-8.942 0,-4.937 -16.21,-8.949 -36.21,-8.949 -19.31,0 -35.08,3.738 -36.15,8.442" /><path
         id="path616"
         style="fill:#392017;fill-opacity:1;fill-rule:evenodd;stroke:none"
         d="m 3125.82,994.02 c -9.91,-4.11 6.57,22.75 55.3,23.81 56.8,1.24 74.08,-26.08 51.7,-18.228 -48.28,16.918 -91.28,0.938 -107,-5.582" /><path
         id="path618"
         style="fill:#392017;fill-opacity:1;fill-rule:evenodd;stroke:none"
         d="m 3046.96,994.02 c 9.91,-4.11 -6.56,22.75 -55.29,23.81 -56.8,1.24 -74.09,-26.08 -51.71,-18.228 48.29,16.918 91.28,0.938 107,-5.582" /><path
         id="path620"
         style="fill:#d5724d;fill-opacity:1;fill-rule:evenodd;stroke:none"
         d="m 3144.24,820.512 c -11.01,-35.352 -110.89,-35.352 -121.91,0 33.11,-25.211 88.81,-25.211 121.91,0" /><path
         id="path622"
         style="fill:#5b301b;fill-opacity:1;fill-rule:evenodd;stroke:none"
         d="m 3109.31,643.059 c -25.95,-65.52 -6.43,-86.137 -6.43,-86.137 l 3,36.859 c 0,0 9,-45.429 9.86,-74.57 0.86,-29.141 -10.28,-67.582 -10.28,-67.582 0,0 46.28,25.152 68.99,64.57 22.71,39.43 15,114 15,114 0,0 9.43,-24.859 9.43,-22.277 0,2.57 5.19,36.476 3,63 -1.06,12.808 1.44,28.508 -6.82,40.398 -38.2,54.989 -76.58,-45.082 -85.75,-68.261" /></g></g></svg>