<?xml version="1.0" encoding="UTF-8" standalone="no"?>
<svg
   xmlns:dc="http://purl.org/dc/elements/1.1/"
   xmlns:cc="http://creativecommons.org/ns#"
   xmlns:rdf="http://www.w3.org/1999/02/22-rdf-syntax-ns#"
   xmlns:svg="http://www.w3.org/2000/svg"
   xmlns="http://www.w3.org/2000/svg"
   viewBox="80 490 120 100"
   height="200"
   width="200"
   xml:space="preserve"
   id="svg2"
   version="1.1"><metadata
     id="metadata8"><rdf:RDF><cc:Work
         rdf:about=""><dc:format>image/svg+xml</dc:format><dc:type
           rdf:resource="http://purl.org/dc/dcmitype/StillImage" /></cc:Work></rdf:RDF></metadata><defs
     id="defs6" /><g
     transform="matrix(1.3333333,0,0,-1.3333333,0,666.66667)"
     id="g10"><g
       transform="scale(0.1)"
       id="g12"><path
         id="path506"
         style="fill:#ffffff;fill-opacity:1;fill-rule:evenodd;stroke:none"
         d="m 3970.92,1783.5 15.87,4.9 29.49,-74.92 c 0,0 -28.27,-25.99 -52.56,-27.79 -24.29,-1.81 -27.99,48.47 -17.6,71.55 10.39,23.08 24.8,26.26 24.8,26.26" /><path
         id="path508"
         style="fill:#ffffff;fill-opacity:1;fill-rule:evenodd;stroke:none"
         d="m 4124.26,1783.49 -15.87,4.91 -29.49,-74.92 c 0,0 28.27,-25.99 52.56,-27.8 24.29,-1.81 27.99,48.47 17.6,71.56 -10.39,23.08 -24.8,26.25 -24.8,26.25" /><path
         id="path510"
         style="fill:#ce4920;fill-opacity:1;fill-rule:evenodd;stroke:none"
         d="m 4044,2245.37 c 8.08,-1.73 80.15,-8.46 80.15,-8.46 0,0 -18.06,-37.48 -84.48,-78.67 -66.43,-41.19 -141.33,-56.36 -139.36,-54.24 1.98,2.12 62.61,25.1 94.06,52.51 31.45,27.41 44.15,51.64 44.15,51.64 l 5.48,37.22" /><path
         id="path512"
         style="fill:#ce4920;fill-opacity:1;fill-rule:evenodd;stroke:none"
         d="m 4143.51,2303.76 c -7.81,2.69 -73.05,34.06 -73.05,34.06 0,0 -3.84,-41.43 31.87,-110.96 35.7,-69.53 92.08,-121.13 91.48,-118.29 -0.6,2.83 -40.72,53.77 -53.55,93.46 -12.83,39.7 -11.23,67.01 -11.23,67.01 l 14.48,34.72" /><path
         id="path514"
         style="fill:#392017;fill-opacity:1;fill-rule:evenodd;stroke:none"
         d="m 1226.59,854.48 c 0,-66.468 46.78,-120.269 18.6,-192.761 -43.91,-113.008 -142.87,-88.27 -216.14,-88.27 h -96.003 c -75.313,0 -164.266,-9.039 -196.094,99.891 -21.922,75.051 17.106,114.672 17.106,174.582 l -3.383,169.348 c 5.769,224.49 86.617,259.53 240.062,259.53 180.552,24.23 229.422,-70.48 240.072,-259.53 l -4.22,-162.79" /><path
         id="path516"
         style="fill:#974731;fill-opacity:1;fill-rule:evenodd;stroke:none"
         d="m 1079.87,578.57 c 4.62,3.461 104.8,79.129 104.8,79.129 45.91,-15.148 59.15,-145.347 63.83,-206.07 h -109.69 l -58.94,126.941" /><path
         id="path518"
         style="fill:#f4ad69;fill-opacity:1;fill-rule:evenodd;stroke:none"
         d="M 985.863,743.582 H 937.457 V 713.02 c 0.031,-19 -3.133,-15.051 -20.875,-24.918 0,0 -17.109,-14.032 -22.32,-15.692 21.511,-69.262 37.066,-158.308 79.113,-220.781 h 12.488 12.489 c 42.048,62.473 57.608,151.519 79.118,220.781 -5.21,1.66 -22.32,15.692 -22.32,15.692 -17.74,9.867 -20.91,5.918 -20.88,24.918 v 30.562 h -48.407" /><path
         id="path520"
         style="fill:#974731;fill-opacity:1;fill-rule:evenodd;stroke:none"
         d="m 894.484,578.57 c -4.621,3.461 -104.796,79.129 -104.796,79.129 -45.911,-15.148 -59.157,-145.347 -63.829,-206.07 h 109.688 l 58.937,126.941" /><path
         id="path522"
         style="fill:#ed7417;fill-opacity:1;fill-rule:evenodd;stroke:none"
         d="m 955.875,619.84 c -42.609,15.64 -47.941,61.308 -39.312,68.012 -18.981,-8.653 -75.36,-17.231 -108.04,-24.801 l -0.546,-0.121 -0.547,-0.129 -0.539,-0.129 -0.536,-0.133 -0.531,-0.117 -0.523,-0.133 -1.035,-0.25 -0.508,-0.117 -0.504,-0.133 -0.504,-0.129 h -0.023 l -0.469,-0.121 -0.492,-0.129 -0.481,-0.121 -0.48,-0.129 -0.477,-0.121 -0.465,-0.129 -1.254,-0.34 -0.117,-0.031 -0.445,-0.117 -0.438,-0.121 -0.429,-0.129 -0.43,-0.121 -0.422,-0.121 -0.414,-0.121 -0.34,-0.098 -0.07,-0.02 -0.402,-0.132 -0.399,-0.118 -0.375,-0.109 -0.012,-0.012 -0.382,-0.121 -0.75,-0.238 -0.274,-0.09 -0.094,-0.031 -1.046,-0.36 -0.18,-0.07 -0.156,-0.051 -0.653,-0.238 -0.32,-0.121 -0.277,-0.109 -0.805,-0.321 -0.246,-0.101 c -0.301,-0.129 -0.59,-0.25 -0.867,-0.379 l -0.036,-0.02 -0.031,-0.011 c -0.297,-0.137 -0.574,-0.27 -0.84,-0.411 l -0.058,-0.027 c -0.238,-0.121 -0.469,-0.25 -0.684,-0.371 l -0.082,-0.051 -0.043,-0.027 c -0.215,-0.133 -0.414,-0.262 -0.597,-0.383 l -0.036,-0.019 -0.023,-0.02 c -0.195,-0.141 -0.375,-0.281 -0.531,-0.418 4.625,-10.121 10.789,-44.703 17.246,-87.422 -6.531,-43.59 -32.063,-74.89 -13.696,-116.281 h 30.004 167.004 1.317 1.312 167.008 30 c 18.36,41.391 -7.16,72.691 -13.7,116.281 6.46,42.719 12.62,77.301 17.25,87.422 -0.15,0.137 -0.33,0.277 -0.53,0.418 l -0.02,0.02 -0.04,0.019 c -0.18,0.121 -0.38,0.25 -0.6,0.383 l -0.04,0.027 -0.08,0.051 c -0.21,0.121 -0.44,0.25 -0.69,0.371 l -0.05,0.027 c -0.26,0.141 -0.55,0.274 -0.84,0.411 l -0.03,0.011 -0.04,0.02 -0.87,0.379 -0.24,0.101 -0.81,0.321 -0.28,0.109 -0.31,0.121 -0.65,0.238 -0.16,0.051 -0.18,0.07 -1.05,0.36 -0.09,0.031 -0.28,0.09 -0.74,0.238 -0.39,0.121 -0.01,0.012 -0.38,0.109 -0.39,0.118 -0.41,0.132 -0.07,0.02 -0.34,0.098 -0.41,0.121 -0.42,0.121 -0.43,0.121 -0.43,0.129 -0.44,0.121 -0.45,0.117 -0.11,0.031 -1.26,0.34 -0.47,0.129 -0.47,0.121 -0.48,0.129 -0.48,0.121 -0.49,0.129 -0.47,0.121 h -0.02 l -0.51,0.129 -0.5,0.133 -0.51,0.117 -1.03,0.25 -0.53,0.133 -0.53,0.117 -0.53,0.133 -0.54,0.129 -0.55,0.129 -0.54,0.121 c -32.68,7.57 -89.06,16.148 -108.04,24.801 8.62,-6.704 3.29,-52.372 -39.32,-68.012 h 0.01 l -29.998,-50.098 -1.312,2.199 -1.317,-2.199 -29.992,50.098 h 0.004" /><path
         id="path524"
         style="fill:#f5b870;fill-opacity:1;fill-rule:evenodd;stroke:none"
         d="m 843.586,982.211 c 8.023,-36.07 -7.926,-66.109 -35.238,-72.582 -27.309,-6.457 -55.614,13.082 -63.629,49.152 -8.028,36.071 7.597,70.559 34.906,77.029 27.305,6.47 55.938,-17.52 63.961,-53.599" /><path
         id="path526"
         style="fill:#f5b870;fill-opacity:1;fill-rule:evenodd;stroke:none"
         d="m 1138.8,982.211 c -8.02,-36.07 7.93,-66.109 35.24,-72.582 27.31,-6.457 55.61,13.082 63.63,49.152 8.03,36.071 -7.6,70.559 -34.91,77.029 -27.3,6.47 -55.93,-17.52 -63.96,-53.599" /><path
         id="path528"
         style="fill:#f7c386;fill-opacity:1;fill-rule:evenodd;stroke:none"
         d="m 991.195,1275.69 -0.621,-0.02 c -14.461,0.57 -28.469,1.13 -28.469,1.13 l 0.063,-2.26 c -1.855,-0.07 -2.988,-0.12 -2.988,-0.12 -57.782,-2.3 -112.188,-33.43 -147.078,-80.83 -34.918,-47.45 -39.559,-107.2 -36.809,-164.43 7.078,-147.039 89.441,-312.14 215.902,-313.359 126.455,1.219 208.825,166.32 215.905,313.359 2.75,57.23 -1.89,116.98 -36.81,164.43 -34.89,47.4 -89.3,78.53 -147.08,80.83 0,0 -1.13,0.05 -2.99,0.12 l 0.06,2.26 c 0,0 -14,-0.56 -28.464,-1.13 l -0.621,0.02" /><path
         id="path530"
         style="fill:#392017;fill-opacity:1;fill-rule:evenodd;stroke:none"
         d="m 1081.07,1218.72 c -1.73,-8.08 -0.19,-51.37 49.62,-117.72 49.81,-66.34 53.66,-72.13 53.66,-72.13 0,0 2.31,-111.948 8.66,-98.671 6.34,13.27 15.4,109.651 15.4,109.651 0,0 11.72,50.19 -0.97,102.12 -12.7,51.94 -28.72,71.52 -50.73,80.27 -22,8.75 -75.64,-3.52 -75.64,-3.52" /><path
         id="path532"
         style="fill:#392017;fill-opacity:1;fill-rule:evenodd;stroke:none"
         d="m 803.504,1078.5 c -8.656,-9.81 -36.785,-10.86 -36.785,-10.86 1.23,-9.08 13.336,-145.71 24.691,-136.031 l 12.094,146.891" /><path
         id="path534"
         style="fill:#392017;fill-opacity:1;fill-rule:evenodd;stroke:none"
         d="m 1184.35,1028.87 c 2.27,37.91 21.72,124.49 12.19,148.11 -27.49,68.13 -77.84,95.72 -162.37,104.17 -25.97,2.59 -47.607,0.29 -47.607,0.29 48.507,-80.05 89.447,-186.4 197.787,-252.57" /><path
         id="path536"
         style="fill:#392017;fill-opacity:1;fill-rule:evenodd;stroke:none"
         d="m 1102.85,1198.11 c -17.14,-106.91 -242.709,-72.44 -316.932,-201.04 -82.695,125.04 43.937,381.17 264.342,282.18 l 52.59,-81.14" /><path
         id="path538"
         style="fill:#383434;fill-opacity:1;fill-rule:evenodd;stroke:none"
         d="m 891.844,936.969 c 9.219,0 16.734,7.519 16.734,16.742 0,9.219 -7.515,16.73 -16.734,16.73 -9.215,0 -16.735,-7.511 -16.735,-16.73 0,-9.223 7.52,-16.742 16.735,-16.742" /><path
         id="path540"
         style="fill:#383434;fill-opacity:1;fill-rule:evenodd;stroke:none"
         d="m 1100.54,936.969 c 9.22,0 16.74,7.519 16.74,16.742 0,9.219 -7.52,16.73 -16.74,16.73 -9.21,0 -16.73,-7.511 -16.73,-16.73 0,-9.223 7.52,-16.742 16.73,-16.742" /><path
         id="path542"
         style="fill:#e3aa6a;fill-opacity:1;fill-rule:evenodd;stroke:none"
         d="m 964.164,868.352 c -0.195,0.058 -0.23,0.23 -0.059,0.507 0,0.84 0.477,1.661 1.368,2.43 6.871,13.242 20.394,51.832 26.59,94.281 6.789,-0.41 -6.735,-72.25 -12.555,-89.398 5.887,1.027 13.062,1.629 20.802,1.629 20,0 36.21,-4.012 36.21,-8.942 0,-4.937 -16.21,-8.949 -36.21,-8.949 -19.306,0 -35.08,3.738 -36.146,8.442" /><path
         id="path544"
         style="fill:#392017;fill-opacity:1;fill-rule:evenodd;stroke:none"
         d="m 1040.63,994.02 c -9.92,-4.11 6.56,22.75 55.29,23.81 56.8,1.24 74.08,-26.08 51.7,-18.228 -48.28,16.918 -91.27,0.938 -106.99,-5.582" /><path
         id="path546"
         style="fill:#392017;fill-opacity:1;fill-rule:evenodd;stroke:none"
         d="m 941.766,994.02 c 9.91,-4.11 -6.571,22.75 -55.297,23.81 -56.805,1.24 -74.082,-26.08 -51.703,-18.228 48.281,16.918 91.277,0.938 107,-5.582" /><path
         id="path548"
         style="fill:#d5724d;fill-opacity:1;fill-rule:evenodd;stroke:none"
         d="m 1048.03,827.391 c -10.22,-45.149 -102.874,-45.149 -113.092,0 30.71,-32.192 82.382,-32.192 113.092,0" /></g></g></svg>