<?xml version="1.0" encoding="UTF-8" standalone="no"?>
<svg
   xmlns:dc="http://purl.org/dc/elements/1.1/"
   xmlns:cc="http://creativecommons.org/ns#"
   xmlns:rdf="http://www.w3.org/1999/02/22-rdf-syntax-ns#"
   xmlns:svg="http://www.w3.org/2000/svg"
   xmlns="http://www.w3.org/2000/svg"
   viewBox="220 200 120 100"
   height="200"
   width="200"
   xml:space="preserve"
   id="svg2"
   version="1.1"><metadata
     id="metadata8"><rdf:RDF><cc:Work
         rdf:about=""><dc:format>image/svg+xml</dc:format><dc:type
           rdf:resource="http://purl.org/dc/dcmitype/StillImage" /></cc:Work></rdf:RDF></metadata><defs
     id="defs6" /><g
     transform="matrix(1.3333333,0,0,-1.3333333,0,666.66667)"
     id="g10"><g
       transform="scale(0.1)"
       id="g12"><path
         id="path120"
         style="fill:#e59a15;fill-opacity:1;fill-rule:evenodd;stroke:none"
         d="m 1976.12,2807.81 c -4.62,3.46 -107.74,52.01 -107.74,52.01 -45.91,-15.14 -56.21,-118.23 -60.88,-178.95 h 109.69 l 58.93,126.94" /><path
         id="path122"
         style="fill:#e59a15;fill-opacity:1;fill-rule:evenodd;stroke:none"
         d="m 2158.89,2807.81 c 4.61,3.46 107.74,52.01 107.74,52.01 45.91,-15.14 56.2,-118.23 60.88,-178.95 h -109.69 l -58.93,126.94" /><path
         id="path124"
         style="fill:#f4ad69;fill-opacity:1;fill-rule:evenodd;stroke:none"
         d="m 2067.5,2972.82 h -48.41 v -30.56 c 0.03,-19 -3.13,-15.05 -20.87,-24.92 0,0 -17.11,-14.03 -22.32,-15.7 21.51,-69.25 37.07,-158.3 79.12,-220.77 h 12.48 12.49 c 42.05,62.47 57.6,151.52 79.12,220.77 -5.21,1.67 -22.33,15.7 -22.33,15.7 -17.74,9.87 -20.9,5.92 -20.87,24.92 v 30.56 h -48.41" /><path
         id="path126"
         style="fill:#f1a40f;fill-opacity:1;fill-rule:evenodd;stroke:none"
         d="m 1998.2,2917.09 c -25.8,-11.76 -119.89,-48.62 -130.42,-57.75 8.55,-18.71 21.51,-95.71 32.72,-178.47 h 167 167.01 c 11.21,82.76 24.17,159.76 32.72,178.47 -10.54,9.13 -104.62,45.99 -130.42,57.75 16.22,-103.46 -157.72,-90.77 -138.61,0" /><path
         id="path128"
         style="fill:#f5b870;fill-opacity:1;fill-rule:evenodd;stroke:none"
         d="m 2197.02,3200.07 c -6.93,-36.06 16.42,-66.1 52.17,-72.58 35.73,-6.45 70.3,13.09 77.21,49.16 6.93,36.07 -16.41,70.56 -52.15,77.02 -35.73,6.48 -70.31,-17.51 -77.23,-53.6" /><path
         id="path130"
         style="fill:#f5b870;fill-opacity:1;fill-rule:evenodd;stroke:none"
         d="m 1947.67,3200.07 c 6.93,-36.06 -16.42,-66.1 -52.16,-72.58 -35.74,-6.45 -70.31,13.09 -77.22,49.16 -6.93,36.07 16.42,70.56 52.15,77.02 35.74,6.48 70.31,-17.51 77.23,-53.6" /><path
         id="path132"
         style="fill:#f7c386;fill-opacity:1;fill-rule:evenodd;stroke:none"
         d="m 2250.68,3422.83 c -34.89,47.4 -89.3,78.53 -147.07,80.83 -0.01,0 -1.14,0.05 -3,0.12 l 0.07,2.26 c 0,0 -14.01,-0.56 -28.47,-1.14 -14.46,0.58 -28.47,1.14 -28.47,1.14 l 0.06,-2.26 c -1.85,-0.07 -2.98,-0.12 -2.98,-0.12 -57.78,-2.3 -112.19,-33.43 -147.08,-80.83 -34.92,-47.45 -39.56,-107.21 -36.81,-164.43 7.08,-147.04 20.23,-311.73 215.9,-313.36 196.27,-1.65 207.59,167.36 214.66,313.36 2.74,57.22 -1.89,116.98 -36.81,164.43" /><path
         id="path134"
         style="fill:#d5724d;fill-opacity:1;fill-rule:evenodd;stroke:none"
         d="m 2112.94,3093.25 c 0.71,-3.14 1.09,-6.42 1.09,-9.78 0,-24.16 -19.41,-43.75 -43.34,-43.75 -23.93,0 -43.34,19.59 -43.34,43.75 0,3.36 0.38,6.64 1.09,9.78 h 84.5" /><path
         id="path136"
         style="fill:#a53521;fill-opacity:1;fill-rule:evenodd;stroke:none"
         d="m 1867.72,3213.89 c 2.59,54.2 3.28,152.23 50.74,152.23 1.21,0 144.15,59.23 308.73,59.23 37.89,0 47.29,-107.61 48.02,-178.42 0.14,-14.6 1.16,-29.19 1.98,-43.75 0.5,-8.55 1.11,-17.08 1.55,-25.63 0.17,-3.47 1.07,-12.76 5.56,-11.88 5.04,0.98 5.62,19.76 6.13,23.77 3.61,28.25 4.57,57.22 4.55,85.64 -0.04,38.83 -1.01,99.05 -34.82,155.97 -11.9,20.02 -19.78,44.19 -44.3,60.59 -57.92,38.74 -174.81,21.81 -241.46,-0.12 -46.44,-15.28 -93.84,-34.31 -110.39,-80.67 -18.18,-50.91 -17.7,-90.7 -11.72,-191.53 0.65,-10.94 1.91,-21.9 3.43,-32.74 0.99,-7.2 1.91,-14.6 3.65,-21.67 3.8,-15.42 9.07,-4.41 8.91,5.18 -0.25,14.64 -1.27,29.15 -0.56,43.8" /><path
         id="path138"
         style="fill:#a53521;fill-opacity:1;fill-rule:evenodd;stroke:none"
         d="m 2240.93,3472.78 c -6.31,145 -287.45,23.61 -323.3,17.05 -89.36,-16.34 -125.82,41.18 -125.82,41.18 -57.35,-163.63 59.82,-300.46 318.73,-128.89 47.53,31.49 104.08,10.9 104.08,10.9 46.03,-60.04 65.78,-69.94 75.2,-152.57 0,0 6.88,57.59 18.86,117.53 12.53,62.66 -15.71,101.88 -67.75,94.8" /><path
         id="path140"
         style="fill:#a53521;fill-opacity:1;fill-rule:evenodd;stroke:none"
         d="m 1859.37,3164.91 c 0,-6.34 25.81,-128.71 43.5,-151.79 17.69,-23.08 77.74,-57.71 87.78,-60.01 7.92,-1.82 60.47,-10.46 82.33,-14.03 21.86,3.57 74.4,12.21 82.32,14.03 10.04,2.3 71.24,39.81 87.78,60.01 16.54,20.19 51.87,168.52 42.35,159.01 -35.79,-71.52 -41.2,-174.59 -185.41,-174.59 -7.11,0 -21.31,11.08 -27.04,15.79 -5.74,-4.71 -19.94,-15.79 -27.05,-15.79 -144.21,0 -150.77,95.86 -186.56,167.37" /><path
         id="path142"
         style="fill:#a53521;fill-opacity:1;fill-rule:evenodd;stroke:none"
         d="m 1945.12,3079.72 c 40.15,-22.34 119.04,-5.55 126.81,9.76 7.78,-15.31 86.67,-32.1 126.81,-9.76 -63.15,12.58 -95.28,41.43 -126.81,31.67 -31.52,9.76 -63.66,-19.09 -126.81,-31.67" /><path
         id="path144"
         style="fill:#ed7417;fill-opacity:1;fill-rule:evenodd;stroke:none"
         d="m 1922.86,2884.81 c 1.16,-4.03 8.43,-203.94 8.43,-203.94 h 40.11 l -14.61,218.69 -33.93,-14.75" /><path
         id="path146"
         style="fill:#ed7417;fill-opacity:1;fill-rule:evenodd;stroke:none"
         d="m 2213.68,2884.81 c -1.15,-4.03 -8.43,-203.94 -8.43,-203.94 h -40.11 l 14.61,218.69 33.93,-14.75" /><path
         id="path148"
         style="fill:#383434;fill-opacity:1;fill-rule:evenodd;stroke:none"
         d="m 1962.86,3170.31 c 9.22,0 16.73,7.52 16.73,16.74 0,9.22 -7.51,16.73 -16.73,16.73 -9.22,0 -16.74,-7.51 -16.74,-16.73 0,-9.22 7.52,-16.74 16.74,-16.74" /><path
         id="path150"
         style="fill:#383434;fill-opacity:1;fill-rule:evenodd;stroke:none"
         d="m 2181.56,3170.31 c 9.22,0 16.73,7.52 16.73,16.74 0,9.21 -7.51,16.73 -16.73,16.73 -9.21,0 -16.73,-7.52 -16.73,-16.73 0,-9.22 7.52,-16.74 16.73,-16.74" /><path
         id="path152"
         style="fill:#ec6f17;fill-opacity:1;fill-rule:evenodd;stroke:none"
         d="m 1909.7,3238.37 c -5.41,9.27 23.59,13.64 52.99,13.43 49.31,-0.36 75.69,-24.46 51.99,-23.43 -17.7,0.77 -103.39,7.28 -104.98,10" /><path
         id="path154"
         style="fill:#ec6f17;fill-opacity:1;fill-rule:evenodd;stroke:none"
         d="m 2234.67,3236.26 c 5.6,9.16 -23.31,14.11 -52.71,14.48 -49.3,0.62 -76.15,-22.96 -52.44,-22.4 17.71,0.42 103.51,5.24 105.15,7.92" /><path
         id="path156"
         style="fill:#e3aa6a;fill-opacity:1;fill-rule:evenodd;stroke:none"
         d="m 2036.34,3122.82 c -0.2,0.06 -0.24,0.22 -0.06,0.5 0,0.85 0.47,1.67 1.36,2.44 6.87,13.23 20.4,51.83 26.59,94.28 6.79,-0.42 -6.73,-72.25 -12.55,-89.4 5.88,1.03 13.06,1.63 20.81,1.63 19.99,0 36.21,-4.01 36.21,-8.95 0,-4.93 -16.22,-8.94 -36.21,-8.94 -19.31,0 -35.09,3.73 -36.15,8.44" /></g></g></svg>