<?xml version="1.0" encoding="UTF-8" standalone="no"?>
<svg
   xmlns:dc="http://purl.org/dc/elements/1.1/"
   xmlns:cc="http://creativecommons.org/ns#"
   xmlns:rdf="http://www.w3.org/1999/02/22-rdf-syntax-ns#"
   xmlns:svg="http://www.w3.org/2000/svg"
   xmlns="http://www.w3.org/2000/svg"
   viewBox="480 50 120 100"
   height="200"
   width="200"
   xml:space="preserve"
   id="svg2"
   version="1.1"><metadata
     id="metadata8"><rdf:RDF><cc:Work
         rdf:about=""><dc:format>image/svg+xml</dc:format><dc:type
           rdf:resource="http://purl.org/dc/dcmitype/StillImage" /></cc:Work></rdf:RDF></metadata><defs
     id="defs6" /><g
     transform="matrix(1.3333333,0,0,-1.3333333,0,666.66667)"
     id="g10"><g
       transform="scale(0.1)"
       id="g12"><path
         id="path280"
         style="fill:#572c1b;fill-opacity:1;fill-rule:evenodd;stroke:none"
         d="m 4086.82,881.762 c -22.14,17.98 -75.5,-27.102 -86.85,-31.953 -33.75,-14.418 -54.53,14.433 -54.53,14.433 0,0 4.33,-20.48 20.49,-38.66 28.89,-32.512 89.87,-23.832 120.89,4.039 31.02,-27.871 91.99,-36.551 120.89,-4.039 16.15,18.18 20.48,38.66 20.48,38.66 0,0 -20.77,-28.851 -54.53,-14.433 -11.35,4.851 -64.71,49.933 -86.84,31.953" /><path
         id="path282"
         style="fill:#383434;fill-opacity:1;fill-rule:evenodd;stroke:none"
         d="m 3974,916.988 c 9.22,0 16.73,7.524 16.73,16.742 0,9.211 -7.51,16.731 -16.73,16.731 -9.22,0 -16.73,-7.52 -16.73,-16.731 0,-9.218 7.51,-16.742 16.73,-16.742" /><path
         id="path284"
         style="fill:#383434;fill-opacity:1;fill-rule:evenodd;stroke:none"
         d="m 4196.29,916.988 c 9.21,0 16.73,7.524 16.73,16.742 0,9.211 -7.52,16.731 -16.73,16.731 -9.22,0 -16.73,-7.52 -16.73,-16.731 0,-9.218 7.51,-16.742 16.73,-16.742" /><path
         id="path286"
         style="fill:#522d1b;fill-opacity:1;fill-rule:evenodd;stroke:none"
         d="m 3920.76,984.77 c -5.56,9.179 23.36,14.011 52.76,14.25 49.31,0.421 76.07,-23.258 52.36,-22.598 -17.72,0.488 -103.5,5.648 -105.12,8.348" /><path
         id="path288"
         style="fill:#522d1b;fill-opacity:1;fill-rule:evenodd;stroke:none"
         d="m 4249.57,986.09 c 5.44,9.262 -23.54,13.711 -52.95,13.57 -49.31,-0.219 -75.75,-24.25 -52.05,-23.281 17.7,0.723 103.41,7 105,9.711" /><path
         id="path290"
         style="fill:#e3aa6a;fill-opacity:1;fill-rule:evenodd;stroke:none"
         d="m 4063.51,892.461 c -0.16,0.051 -0.19,0.191 -0.04,0.418 0,0.703 0.39,1.383 1.12,2.019 5.69,10.942 16.88,42.864 22,77.981 5.62,-0.348 -5.57,-59.77 -10.39,-73.949 4.87,0.851 10.81,1.351 17.22,1.351 16.54,0 29.94,-3.312 29.94,-7.402 0,-4.09 -13.4,-7.399 -29.94,-7.399 -15.98,0 -29.03,3.09 -29.91,6.981" /><path
         id="path292"
         style="fill:#431c17;fill-opacity:1;fill-rule:evenodd;stroke:none"
         d="m 3837.83,4333.29 c 1.16,-11.54 26.69,-110.81 18.03,-183.51 -8.65,-72.71 -25.66,-142.82 -25.66,-142.82 159.55,-33.31 259.62,-14.31 415.18,10.2 0,0 10.13,47.34 -8.79,137.3 -18.92,89.95 24.12,192.73 24.12,192.73 l -422.88,-13.9" /><path
         id="path294"
         style="fill:#431c17;fill-opacity:1;fill-rule:evenodd;stroke:none"
         d="m 4143.7,4578.7 c 307.32,52.57 16.44,-425.68 178.73,-548.75 23.13,-17.54 -105.53,-94.77 -153.51,-15.23 -30.08,49.88 68.28,141.01 74.62,269.29 6.33,128.28 -38.88,172.44 -66.47,220.87 -27.6,48.43 -33.37,73.82 -33.37,73.82" /><path
         id="path296"
         style="fill:#431c17;fill-opacity:1;fill-rule:evenodd;stroke:none"
         d="m 4185.91,4559.64 c 8.27,-72.72 -11.08,-81.56 -69.68,-120.36 -58.59,-38.8 -83.93,-38.8 -74.43,-34.05 9.5,4.75 54.64,83.15 54.64,83.15 0,0 -60.97,-49.1 -122.74,-73.65 -61.76,-24.54 -83.93,-15.05 -83.93,-15.05 0,0 54.63,71.27 47.51,65.73 -7.13,-5.54 -59.39,-39.59 -66.52,-55.43 -7.12,-15.84 -22.34,-87.03 -13.63,-165.41 8.71,-78.39 90.91,-227.57 44.2,-258.45 -62.83,-41.54 -142.99,35.24 -129.92,38.56 97.68,24.77 45.42,402.39 48.66,424.89 8.32,57.7 40.86,99.7 77.25,128.69 77.88,62.06 279.62,60.33 288.59,-18.62" /><path
         id="path298"
         style="fill:#e02624;fill-opacity:1;fill-rule:evenodd;stroke:none"
         d="m 4139.72,3914.72 c 4.62,3.46 104.8,79.13 104.8,79.13 45.91,-15.14 59.15,-145.35 63.82,-206.07 h -109.68 l -58.94,126.94" /><path
         id="path300"
         style="fill:#f4ad69;fill-opacity:1;fill-rule:evenodd;stroke:none"
         d="m 4045.71,4079.73 h -48.41 v -30.56 c 0.03,-18.99 -3.13,-15.04 -20.87,-24.91 0,0 -17.11,-14.04 -22.32,-15.7 21.51,-69.25 37.06,-158.31 79.11,-220.78 h 12.49 12.49 c 42.05,62.47 57.6,151.53 79.11,220.78 -5.21,1.66 -22.32,15.7 -22.32,15.7 -17.74,9.87 -20.9,5.92 -20.87,24.91 v 30.56 h -48.41" /><path
         id="path302"
         style="fill:#e02624;fill-opacity:1;fill-rule:evenodd;stroke:none"
         d="m 3954.33,3914.72 c -4.62,3.46 -104.8,79.13 -104.8,79.13 -45.91,-15.14 -59.15,-145.35 -63.82,-206.07 h 109.68 l 58.94,126.94" /><path
         id="path304"
         style="fill:#e62d23;fill-opacity:1;fill-rule:evenodd;stroke:none"
         d="m 3976.41,4024 c -25.8,-11.76 -114.83,-22.16 -125.37,-31.29 8.56,-18.71 62.04,-108.32 27.67,-204.93 h 167 1.32 1.31 167 c -14.75,104.69 25.01,185 33.56,203.71 -10.54,9.12 -106,19.31 -131.8,31.07 31.28,-24.28 -25.1,-99.01 -71.39,-102.24 -46.45,3.28 -100.16,79.74 -69.3,103.68" /><path
         id="path306"
         style="fill:#f5b870;fill-opacity:1;fill-rule:evenodd;stroke:none"
         d="m 3903.43,4318.36 c 8.03,-36.06 -7.92,-66.1 -35.24,-72.57 -27.3,-6.47 -55.61,13.08 -63.63,49.15 -8.02,36.06 7.6,70.56 34.91,77.02 27.31,6.47 55.94,-17.51 63.96,-53.6" /><path
         id="path308"
         style="fill:#f5b870;fill-opacity:1;fill-rule:evenodd;stroke:none"
         d="m 4198.65,4318.36 c -8.02,-36.06 7.93,-66.1 35.24,-72.57 27.31,-6.47 55.61,13.08 63.63,49.15 8.03,36.06 -7.6,70.56 -34.91,77.02 -27.3,6.47 -55.93,-17.51 -63.96,-53.6" /><path
         id="path310"
         style="fill:#f7c386;fill-opacity:1;fill-rule:evenodd;stroke:none"
         d="m 4051.04,4611.84 -0.62,-0.02 c -14.46,0.58 -28.47,1.13 -28.47,1.13 l 0.07,-2.26 c -1.86,-0.07 -2.99,-0.12 -2.99,-0.12 -57.78,-2.3 -112.19,-33.42 -147.08,-80.82 -34.92,-47.45 -39.56,-107.21 -36.81,-164.44 7.08,-147.04 89.44,-312.13 215.9,-313.36 126.46,1.23 208.83,166.32 215.9,313.36 2.75,57.23 -1.88,116.99 -36.81,164.44 -34.89,47.4 -89.29,78.52 -147.07,80.82 0,0 -1.13,0.05 -2.99,0.12 l 0.06,2.26 c 0,0 -14,-0.55 -28.47,-1.13 l -0.62,0.02" /><path
         id="path312"
         style="fill:#431c17;fill-opacity:1;fill-rule:evenodd;stroke:none"
         d="m 3948.2,4600.43 c 1.68,5.88 82.12,17.13 89.73,17.6 44.89,2.77 103.44,-6.44 131.57,-21.93 28.12,-15.48 66.93,-55.39 72.7,-70.4 5.77,-15 4.61,-16.15 -66.94,-65.78 -71.56,-49.62 -178.88,-72.37 -151.18,-63.47 27.69,8.9 50.14,54.63 50.14,54.63 0,0 -18.99,-22.32 -113.62,-55.79 -94.64,-33.46 -119.48,-22.98 -119.48,-22.98 0,0 -30.18,44.55 -13.69,98.92 16.5,54.37 30.16,58.6 61.62,90.25 31.45,31.66 59.15,38.95 59.15,38.95" /><path
         id="path314"
         style="fill:#431c17;fill-opacity:1;fill-rule:evenodd;stroke:none"
         d="m 4140.91,4554.87 c -1.73,-8.08 -0.18,-51.37 49.63,-117.71 49.81,-66.35 53.66,-72.14 53.66,-72.14 0,0 1.49,-121.46 2.07,-116.27 0.58,5.2 26.67,125.88 26.67,125.88 0,0 7.04,51.56 -5.66,103.5 -12.69,51.93 -28.71,71.51 -50.72,80.26 -22.01,8.75 -75.65,-3.52 -75.65,-3.52" /><path
         id="path316"
         style="fill:#431c17;fill-opacity:1;fill-rule:evenodd;stroke:none"
         d="m 3863.35,4414.65 c -8.65,-9.81 -35.17,-32.45 -35.17,-32.45 l 28.6,-134.4 6.57,166.85" /><path
         id="path318"
         style="fill:#e62d23;fill-opacity:1;fill-rule:evenodd;stroke:none"
         d="m 3872.39,3999.21 c -11.75,-2.73 -20.44,-5.31 -23.22,-7.72 52.4,-99.5 -24.97,-139.41 3.55,-203.71 h 197.01 1.31 1.31 197.02 c 28.52,64.3 -48.86,104.21 3.55,203.71 -2.79,2.41 -11.48,4.99 -23.22,7.72 -12.87,-66.07 -87.96,-116.78 -178.66,-116.78 -90.7,0 -165.78,50.71 -178.65,116.78" /><path
         id="path320"
         style="fill:#f2f2f2;fill-opacity:1;fill-rule:evenodd;stroke:none"
         d="m 4045.71,3920.32 c -31.75,2.24 -66.91,38.69 -76.11,69.17 -4.25,14.11 -2.95,26.94 6.81,34.51 -0.21,-0.09 -0.43,-0.19 -0.64,-0.28 -2.01,-0.88 -4.36,-1.76 -7.01,-2.61 -12.31,-5.34 -35.9,-16.73 -43.71,-28.76 -2.04,-3.14 -3,-6.32 -2.4,-9.45 3.75,-19.62 34.05,-20.2 34.05,-20.2 0,0 -1.74,-8.08 0.58,-22.79 4.34,-27.69 15.31,-42.44 29.41,-46.65 17.15,-5.12 38.92,5.34 59.02,27.06" /><path
         id="path322"
         style="fill:#f2f2f2;fill-opacity:1;fill-rule:evenodd;stroke:none"
         d="m 4045.71,3920.32 c 31.76,2.24 66.91,38.69 76.11,69.17 4.26,14.11 2.94,27.19 -6.83,34.77 2.39,-1.1 5.2,-2.35 7.67,-3.15 12.31,-5.34 35.9,-16.73 43.71,-28.76 2.04,-3.14 3,-6.32 2.4,-9.45 -3.75,-19.62 -34.04,-20.2 -34.04,-20.2 0,0 1.73,-8.08 -0.58,-22.79 -4.35,-27.69 -15.32,-42.44 -29.42,-46.65 -17.15,-5.12 -38.92,5.34 -59.02,27.06" /><path
         id="path324"
         style="fill:#383434;fill-opacity:1;fill-rule:evenodd;stroke:none"
         d="m 4020.2,4319.8 v 0 c 1.02,-3.19 1.27,-6.57 1.36,-9.99 0.18,-6.51 -0.5,-12.91 -1.43,-19.28 -1.91,-13.17 -6.84,-31.96 -13.33,-42.6 -5.62,-9.2 -11.41,-13.24 -20.9,-15.45 -5.65,-1.32 -11.32,-2.61 -17.02,-3.51 -25.23,-3.96 -49.32,-5 -74.42,1.51 -2.93,0.76 -5.87,1.54 -8.73,2.66 -5.21,2.05 -10.08,5.03 -13.74,10.63 -4.87,7.45 -9.57,23.45 -11.34,32.85 -2.59,13.79 -5.23,30.64 -4.53,44.79 0.27,5.58 1.67,10.36 5.4,13.51 5.01,4.24 18.59,6.84 24.4,7.35 25.92,2.28 52.73,2.36 78.65,-0.5 14.35,-1.59 33.81,-4.52 47.17,-11.64 3.79,-2.01 6.82,-5.21 8.46,-10.33 z m 61.68,0 v 0 c 1.64,5.12 4.68,8.32 8.46,10.33 13.37,7.12 32.82,10.05 47.17,11.64 25.93,2.86 52.73,2.78 78.65,0.5 5.82,-0.51 19.4,-3.11 24.41,-7.35 3.73,-3.15 5.12,-7.93 5.4,-13.51 0.69,-14.15 -1.94,-31 -4.54,-44.79 -1.77,-9.4 -6.47,-25.4 -11.34,-32.85 -3.66,-5.6 -8.52,-8.58 -13.74,-10.63 -2.85,-1.12 -5.8,-1.9 -8.72,-2.66 -25.1,-6.51 -49.19,-5.47 -74.43,-1.51 -5.7,0.9 -11.36,2.19 -17.02,3.51 -9.48,2.21 -15.28,6.25 -20.89,15.45 -6.5,10.64 -11.42,29.43 -13.34,42.6 -0.93,6.37 -1.61,12.77 -1.43,19.28 0.09,3.42 0.34,6.8 1.36,9.99 z m -42.29,-13.92 c 3.8,1.25 7.61,1.76 11.45,1.52 3.84,0.24 7.66,-0.27 11.45,-1.52 4.16,-1.38 6.86,-4.92 8.29,-10.2 1.61,-5.96 3.13,-11.97 4.84,-17.88 3.52,-12.12 7.77,-23.75 13.96,-33.96 10.18,-16.77 26.78,-19.04 41.85,-20.95 30.04,-3.81 52.89,-4.25 82.74,2.91 4.07,0.98 8.01,2.63 11.84,4.68 5.67,3.06 9.99,8.15 13.06,15.15 3.24,7.39 5.75,15.23 8.14,23.14 1.72,5.69 3.38,11.41 5.09,17.12 1.1,3.68 2.73,6.93 4.84,9.76 1.66,2.24 3.5,5.66 4.94,8.29 1.03,1.87 1.52,4.03 1.63,6.3 0.37,7.87 0.76,16.09 0.89,23.96 0.34,21.16 -96.94,17.5 -108.23,17 -5.13,-0.23 -10.25,-0.55 -15.36,-1 -15.01,-1.33 -39.32,-4.11 -53.65,-9.33 -6.33,-2.31 -27.92,-9.21 -36.32,-8.42 -8.4,-0.79 -29.98,6.11 -36.32,8.42 -14.33,5.22 -38.63,8 -53.64,9.33 -5.12,0.45 -10.24,0.77 -15.36,1 -11.3,0.5 -108.58,4.16 -108.23,-17 0.13,-7.87 0.52,-16.09 0.89,-23.96 0.1,-2.27 0.6,-4.43 1.62,-6.3 1.45,-2.63 3.29,-6.05 4.95,-8.29 2.11,-2.83 3.73,-6.08 4.84,-9.76 1.7,-5.71 3.37,-11.43 5.09,-17.12 2.39,-7.91 4.89,-15.75 8.13,-23.14 3.07,-7 7.39,-12.09 13.07,-15.15 3.83,-2.05 7.77,-3.7 11.83,-4.68 29.86,-7.16 52.71,-6.72 82.74,-2.91 15.07,1.91 31.68,4.18 41.85,20.95 6.2,10.21 10.44,21.84 13.96,33.96 1.72,5.91 3.23,11.92 4.85,17.88 1.43,5.28 4.12,8.82 8.28,10.2 v 0" /><path
         id="path326"
         style="fill:#431c17;fill-opacity:1;fill-rule:evenodd;stroke:none"
         d="m 3883.4,4355.83 c -9.91,-4.11 6.56,22.75 55.29,23.81 56.8,1.24 74.08,-26.08 51.7,-18.24 -48.28,16.93 -91.27,0.94 -106.99,-5.57" /><path
         id="path328"
         style="fill:#383434;fill-opacity:1;fill-rule:evenodd;stroke:none"
         d="m 3940.98,4284.79 c 9.21,0 16.73,7.52 16.73,16.74 0,9.21 -7.52,16.73 -16.73,16.73 -9.22,0 -16.74,-7.52 -16.74,-16.73 0,-9.22 7.52,-16.74 16.74,-16.74" /><path
         id="path330"
         style="fill:#383434;fill-opacity:1;fill-rule:evenodd;stroke:none"
         d="m 4161.11,4284.79 c 9.21,0 16.73,7.52 16.73,16.74 0,9.21 -7.52,16.73 -16.73,16.73 -9.22,0 -16.74,-7.52 -16.74,-16.73 0,-9.22 7.52,-16.74 16.74,-16.74" /><path
         id="path332"
         style="fill:#431c17;fill-opacity:1;fill-rule:evenodd;stroke:none"
         d="m 4228.46,4355.83 c 9.91,-4.11 -6.56,22.75 -55.29,23.81 -56.81,1.24 -74.09,-26.08 -51.71,-18.24 48.29,16.93 91.28,0.94 107,-5.57" /><path
         id="path334"
         style="fill:#d5724d;fill-opacity:1;fill-rule:evenodd;stroke:none"
         d="m 4098,4155.73 c 0.71,-3.14 1.09,-6.42 1.09,-9.78 0,-24.16 -19.41,-43.75 -43.34,-43.75 -23.93,0 -43.34,19.59 -43.34,43.75 0,3.36 0.38,6.64 1.09,9.78 h 84.5" /></g></g></svg>