<?xml version="1.0" encoding="UTF-8" standalone="no"?>
<svg
   xmlns:dc="http://purl.org/dc/elements/1.1/"
   xmlns:cc="http://creativecommons.org/ns#"
   xmlns:rdf="http://www.w3.org/1999/02/22-rdf-syntax-ns#"
   xmlns:svg="http://www.w3.org/2000/svg"
   xmlns="http://www.w3.org/2000/svg"
   viewBox="350 350 120 100"
   height="200"
   width="200"
   xml:space="preserve"
   id="svg2"
   version="1.1"><metadata
     id="metadata8"><rdf:RDF><cc:Work
         rdf:about=""><dc:format>image/svg+xml</dc:format><dc:type
           rdf:resource="http://purl.org/dc/dcmitype/StillImage" /></cc:Work></rdf:RDF></metadata><defs
     id="defs6" /><g
     transform="matrix(1.3333333,0,0,-1.3333333,0,666.66667)"
     id="g10"><g
       transform="scale(0.1)"
       id="g12"><path
         id="path222"
         style="fill:#76726e;fill-opacity:1;fill-rule:evenodd;stroke:none"
         d="m 2976.8,1766.58 -1.42,45.84 144.74,0.02 -1.37,-44.42 -141.95,-1.44" /><path
         id="path224"
         style="fill:#787472;fill-opacity:1;fill-rule:evenodd;stroke:none"
         d="m 2951.08,1672.21 c -4.61,3.47 -107.74,52.02 -107.74,52.02 -45.91,-15.15 -56.21,-118.24 -60.88,-178.96 h 109.69 l 58.93,126.94" /><path
         id="path226"
         style="fill:#787472;fill-opacity:1;fill-rule:evenodd;stroke:none"
         d="m 3133.85,1672.21 c 4.61,3.47 107.74,52.02 107.74,52.02 45.91,-15.15 56.21,-118.24 60.88,-178.96 h -109.69 l -58.93,126.94" /><path
         id="path228"
         style="fill:#f4ad69;fill-opacity:1;fill-rule:evenodd;stroke:none"
         d="m 3042.46,1837.22 h -48.4 v -30.56 c 0.03,-18.99 -3.14,-15.05 -20.88,-24.92 0,0 -17.11,-14.03 -22.32,-15.69 21.51,-69.25 37.07,-158.31 79.12,-220.78 h 12.48 12.49 c 42.05,62.47 57.61,151.53 79.12,220.78 -5.21,1.66 -22.32,15.69 -22.32,15.69 -17.74,9.87 -20.91,5.93 -20.88,24.92 v 30.56 h -48.41" /><path
         id="path230"
         style="fill:#7f7974;fill-opacity:1;fill-rule:evenodd;stroke:none"
         d="m 3046.79,1669.05 c 0,0 -15.1,19.92 -22.05,31.22 -21.03,34.14 -50.89,80.84 -51.58,81.22 -25.8,-11.76 -119.89,-48.62 -130.42,-57.75 8.55,-18.7 21.51,-95.71 32.72,-178.47 h 167 167.01 c 11.21,82.76 24.17,159.77 32.72,178.47 -10.54,9.13 -104.62,45.99 -130.42,57.75 -0.65,-0.36 -19.31,-48.47 -41.01,-81.2 -9,-13.58 -23.97,-31.24 -23.97,-31.24" /><path
         id="path232"
         style="fill:#f5b870;fill-opacity:1;fill-rule:evenodd;stroke:none"
         d="m 3171.99,2052.76 c -6.94,-39.36 16.41,-72.15 52.16,-79.22 35.74,-7.05 70.3,14.29 77.21,53.66 6.93,39.37 -16.41,77.02 -52.15,84.08 -35.73,7.06 -70.31,-19.12 -77.22,-58.52" /><path
         id="path234"
         style="fill:#f5b870;fill-opacity:1;fill-rule:evenodd;stroke:none"
         d="m 2922.64,2052.76 c 6.92,-39.36 -16.42,-72.15 -52.17,-79.22 -35.73,-7.05 -70.3,14.29 -77.22,53.66 -6.93,39.37 16.42,77.02 52.15,84.08 35.74,7.06 70.31,-19.12 77.24,-58.52" /><path
         id="path236"
         style="fill:#f7c386;fill-opacity:1;fill-rule:evenodd;stroke:none"
         d="m 3225.65,2287.24 c -34.9,47.4 -89.31,78.52 -147.08,80.82 -0.01,0 -1.14,0.05 -3,0.12 l 0.07,2.26 c 0,0 -14,-0.56 -28.47,-1.13 -14.46,0.57 -28.46,1.13 -28.46,1.13 l 0.06,-2.26 c -1.86,-0.07 -2.99,-0.12 -2.99,-0.12 -57.78,-2.3 -112.19,-33.42 -147.08,-80.82 -34.92,-47.45 -39.56,-107.21 -36.81,-164.44 2.08,-43.24 9.74,-113.05 11.89,-156.3 55.53,-207.72 355.04,-211.12 406.79,0 2.15,43.25 9.79,113.06 11.88,156.3 2.75,57.23 -1.89,116.99 -36.8,164.44" /><path
         id="path238"
         style="fill:#392017;fill-opacity:1;fill-rule:evenodd;stroke:none"
         d="m 2870.33,2207.59 c -2.75,-5.98 13.11,54.01 47.9,55.05 36.43,1.08 262.8,-12.69 274.39,2.46 38.36,-48.55 63.77,-247.98 65.95,-247.55 11.63,2.26 13.44,105.59 13.43,116.92 -0.06,52.77 15.27,154.38 -80.22,217.7 -58.72,38.95 -180.11,42.82 -247.69,20.77 -47.07,-15.36 -92.2,-55.37 -108.98,-101.98 -18.42,-51.19 -17.95,-91.19 -11.88,-192.55 0.66,-11 1.95,-22.01 3.48,-32.91 1.01,-7.25 1.95,-14.68 3.71,-21.79 9.57,-38.61 10.48,138.26 39.91,183.88" /><path
         id="path240"
         style="fill:#392017;fill-opacity:1;fill-rule:evenodd;stroke:none"
         d="m 2856.56,2261.26 c 1.54,-4.45 7.36,-26.34 83.32,-52.07 75.95,-25.72 148.85,-26.33 143.33,-25.11 -5.51,1.22 -22.05,15.92 -22.05,15.92 0,0 54.52,-17.76 94.33,-14.08 39.82,3.67 68.61,26.34 63.71,26.34 -4.9,0 -26.95,9.8 -26.95,9.8 0,0 49.62,23.89 78.41,56.97 28.79,33.08 37.98,64.31 34.3,61.25 -3.67,-3.06 -28.18,-15.31 -24.5,-11.02 3.67,4.28 6.74,53.29 6.74,53.29 0,0 -21.44,-14.7 -27.57,-15.92 -6.12,-1.23 6.74,40.43 6.74,40.43 0,0 -58.8,-11.02 -92.49,-6.12 -33.69,4.89 -52.68,14.7 -102.3,17.15 -49.61,2.45 -79.63,-12.26 -79.63,-12.26 l 7.97,15.93 c 0,0 -69.53,-19.9 -87.9,-33.68 -18.38,-13.79 -35.53,-41.66 -35.53,-41.66 0,0 -17.45,5.52 -31.54,4.9 -14.09,-0.61 -20.21,-3.98 -20.21,-3.98 l 31.85,-10.41 c 0,0 -14.4,-3.99 -25.12,-13.48 -10.72,-9.49 -19.6,-20.52 -15.01,-17.76 4.6,2.75 30.94,5.2 30.94,5.2 l 9.16,-49.63" /><path
         id="path242"
         style="fill:#6d6764;fill-opacity:1;fill-rule:evenodd;stroke:none"
         d="m 2997.3,1739.71 c 2.6,0 17.19,-2.31 17.19,-2.31 l 10.25,-37.13 -36.67,16.94 9.23,22.5" /><path
         id="path244"
         style="fill:#9a958e;fill-opacity:1;fill-rule:evenodd;stroke:none"
         d="m 2975.38,1812.42 39.11,-75.02 c 0,0 -40.27,-39.52 -39.69,-37.79 0.58,1.73 -18.07,71.65 -16.68,75.36 1.39,3.7 17.26,37.45 17.26,37.45" /><path
         id="path246"
         style="fill:#6d6764;fill-opacity:1;fill-rule:evenodd;stroke:none"
         d="m 3098.19,1739.73 c -2.6,0 -17.19,-2.31 -17.19,-2.31 l -10.24,-37.13 36.66,16.94 -9.23,22.5" /><path
         id="path248"
         style="fill:#9a958e;fill-opacity:1;fill-rule:evenodd;stroke:none"
         d="M 3120.12,1812.44 3081,1737.42 c 0,0 40.27,-39.52 39.69,-37.79 -0.57,1.73 18.07,71.65 16.68,75.35 -1.38,3.7 -17.25,37.46 -17.25,37.46" /><path
         id="path250"
         style="fill:#383434;fill-opacity:1;fill-rule:evenodd;stroke:none"
         d="m 3010.4,2110.06 v 0 c 5.89,-4.6 7.68,-14.57 8.19,-26.85 2.11,-50.62 -26.15,-112.56 -82.81,-115.59 -42.73,-2.28 -71.62,17.85 -83.29,61.25 -3.2,11.89 -4.6,28.26 -4.09,39 0.51,10.74 4.47,21.35 11.89,30.43 19.73,24.15 86.67,22.76 114.31,20.97 9.78,-0.63 27.87,-3 35.8,-9.21 z m 73.54,0 v 0 c 7.93,6.21 26.03,8.58 35.8,9.21 27.64,1.79 94.58,3.18 114.31,-20.97 7.42,-9.08 11.38,-19.69 11.89,-30.43 0.51,-10.74 -0.89,-27.11 -4.09,-39 -11.67,-43.4 -40.55,-63.53 -83.29,-61.25 -56.66,3.03 -84.91,64.97 -82.81,115.59 0.52,12.28 2.31,22.25 8.19,26.85 z m -53.43,-27.81 v 0 c -1.5,-1.17 -3.63,2.64 -3.83,3.83 -2.1,11.91 0.69,29 -15.99,32.1 h 72.96 c -16.68,-3.1 -13.89,-20.19 -15.98,-32.1 -0.21,-1.19 -2.34,-4.92 -3.84,-3.83 -1.5,1.08 -31.81,1.17 -33.32,0 z m -172.36,26.08 c -9.06,-10.07 -13.07,-18.71 -16.24,-30.11 0,0 -8.31,-0.32 -11.13,-2.75 -2.81,-2.43 -2.87,-10.93 -0.31,-12.79 2.55,-1.85 10.93,-1.72 10.93,-1.72 -0.07,-60.03 32.29,-102.8 94.03,-100.57 30.45,1.1 54.48,14.09 71.81,43.73 9.71,16.62 16.62,37.34 18.16,48.08 1.53,10.74 2.81,16.11 5.37,17.64 2.06,1.24 12.48,1.4 16.4,1.41 3.92,-0.01 14.34,-0.17 16.41,-1.41 2.56,-1.53 3.83,-6.9 5.37,-17.64 1.53,-10.74 8.44,-31.46 18.15,-48.08 17.34,-29.64 41.36,-42.63 71.82,-43.73 61.73,-2.23 94.09,40.54 94.02,100.57 0,0 8.38,-0.13 10.94,1.72 2.55,1.86 2.49,10.36 -0.32,12.79 -2.81,2.43 -11.13,2.75 -11.13,2.75 -3.16,11.4 -7.18,20.04 -16.23,30.11 -8.43,9.36 -28.71,16.28 -53.57,18.24 -61.58,4.85 -204.33,4.52 -266.06,0.65 -26.98,-1.7 -49.42,-8.88 -58.42,-18.89 v 0" /><path
         id="path252"
         style="fill:#525153;fill-opacity:1;fill-rule:evenodd;stroke:none"
         d="m 2858.99,2099.27 c -7.55,-9.24 -11.58,-20.04 -12.11,-30.97 -0.52,-10.94 0.91,-27.6 4.17,-39.7 6.44,-23.97 18.05,-40.97 34.27,-51.13 13.67,-8.56 30.61,-12.27 50.5,-11.21 57.67,3.09 86.43,66.13 84.28,117.65 -0.52,12.5 -2.34,22.65 -8.32,27.33 -8.07,6.32 -26.5,8.73 -36.44,9.37 -22.83,1.48 -71.99,2.69 -100.46,-10.03 -6.61,-2.96 -12.11,-6.67 -15.89,-11.31" /><path
         id="path254"
         style="fill:#525153;fill-opacity:1;fill-rule:evenodd;stroke:none"
         d="m 3074.81,2083.65 c -2.13,-51.19 26.44,-113.81 83.73,-116.88 19.81,-1.06 36.69,2.65 50.28,11.21 16.06,10.1 27.55,26.96 33.93,50.72 3.23,12.03 4.66,28.58 4.14,39.44 -0.52,10.86 -4.53,21.59 -12.02,30.77 -3.74,4.58 -9.16,8.24 -15.68,11.17 -28.26,12.7 -77.2,11.5 -99.91,10.03 -9.88,-0.64 -28.18,-3.04 -36.2,-9.31 -5.94,-4.66 -7.75,-14.74 -8.27,-27.15" /><path
         id="path256"
         style="fill:#d5724d;fill-opacity:1;fill-rule:evenodd;stroke:none"
         d="m 3132.15,1907.78 c -15.37,-19.67 -43.6,-32.86 -75.89,-32.86 -32.29,0 -60.52,13.19 -75.9,32.85 18.74,-13.53 44.93,-27.23 75.03,-27.23 30.1,0 58.03,13.7 76.76,27.24" /></g></g></svg>