<?xml version="1.0" encoding="UTF-8" standalone="no"?>
<svg
   xmlns:dc="http://purl.org/dc/elements/1.1/"
   xmlns:cc="http://creativecommons.org/ns#"
   xmlns:rdf="http://www.w3.org/1999/02/22-rdf-syntax-ns#"
   xmlns:svg="http://www.w3.org/2000/svg"
   xmlns="http://www.w3.org/2000/svg"
   viewBox="350 50 120 100"
   height="200"
   width="200"
   xml:space="preserve"
   id="svg2"
   version="1.1"><metadata
     id="metadata8"><rdf:RDF><cc:Work
         rdf:about=""><dc:format>image/svg+xml</dc:format><dc:type
           rdf:resource="http://purl.org/dc/dcmitype/StillImage" /></cc:Work></rdf:RDF></metadata><defs
     id="defs6" /><g
     transform="matrix(1.3333333,0,0,-1.3333333,0,666.66667)"
     id="g10"><g
       transform="scale(0.1)"
       id="g12"><path
         id="path78"
         style="fill:#3f8ec7;fill-opacity:1;fill-rule:evenodd;stroke:none"
         d="m 2978.43,4009.09 -1.42,45.84 144.74,0.02 -1.37,-44.41 -141.95,-1.45" /><path
         id="path80"
         style="fill:#4195d7;fill-opacity:1;fill-rule:evenodd;stroke:none"
         d="m 2952.71,3914.72 c -4.61,3.46 -107.74,52.02 -107.74,52.02 -45.91,-15.15 -56.21,-118.24 -60.88,-178.96 h 109.69 l 58.93,126.94" /><path
         id="path82"
         style="fill:#4195d7;fill-opacity:1;fill-rule:evenodd;stroke:none"
         d="m 3135.48,3914.72 c 4.61,3.46 107.74,52.02 107.74,52.02 45.91,-15.15 56.21,-118.24 60.88,-178.96 h -109.69 l -58.93,126.94" /><path
         id="path84"
         style="fill:#f4ad69;fill-opacity:1;fill-rule:evenodd;stroke:none"
         d="m 3044.1,4079.73 h -48.41 v -30.56 c 0.03,-18.99 -3.14,-15.04 -20.87,-24.91 0,0 -17.12,-14.04 -22.33,-15.7 21.52,-69.25 38.8,-141.57 80.85,-204.04 h 12.49 12.49 c 42.04,62.47 55.87,134.79 77.38,204.04 -5.21,1.66 -22.32,15.7 -22.32,15.7 -17.74,9.87 -20.91,5.92 -20.88,24.91 v 30.56 h -48.4" /><path
         id="path86"
         style="fill:#3f8ad1;fill-opacity:1;fill-rule:evenodd;stroke:none"
         d="m 3048.42,3911.56 c 0,0 -15.1,19.92 -22.05,31.22 -21.03,34.14 -50.89,80.84 -51.58,81.22 -25.8,-11.76 -119.88,-48.62 -130.42,-57.75 8.55,-18.71 21.51,-95.71 32.72,-178.47 h 167.01 167 c 11.21,82.76 24.17,159.76 32.72,178.47 -10.53,9.13 -104.62,45.99 -130.42,57.75 -0.65,-0.36 -19.31,-48.47 -41.01,-81.2 -9,-13.58 -23.97,-31.24 -23.97,-31.24" /><path
         id="path88"
         style="fill:#3378bb;fill-opacity:1;fill-rule:evenodd;stroke:none"
         d="m 2998.93,3982.22 c 2.6,0 17.19,-2.31 17.19,-2.31 l 10.25,-37.13 -36.67,16.94 9.23,22.5" /><path
         id="path90"
         style="fill:#4fa7e1;fill-opacity:1;fill-rule:evenodd;stroke:none"
         d="m 2977.01,4054.93 39.11,-75.02 c 0,0 -40.27,-39.52 -39.69,-37.79 0.58,1.73 -18.06,71.65 -16.68,75.36 1.39,3.7 17.26,37.45 17.26,37.45" /><path
         id="path92"
         style="fill:#3378bb;fill-opacity:1;fill-rule:evenodd;stroke:none"
         d="m 3099.82,3982.24 c -2.59,0 -17.18,-2.31 -17.18,-2.31 l -10.25,-37.13 36.67,16.94 -9.24,22.5" /><path
         id="path94"
         style="fill:#4fa7e1;fill-opacity:1;fill-rule:evenodd;stroke:none"
         d="m 3121.75,4054.95 -39.11,-75.02 c 0,0 40.26,-39.52 39.68,-37.79 -0.57,1.73 18.07,71.65 16.69,75.35 -1.39,3.7 -17.26,37.46 -17.26,37.46" /><path
         id="path96"
         style="fill:#f5b870;fill-opacity:1;fill-rule:evenodd;stroke:none"
         d="m 3168.91,4302.44 c -6.93,-36.06 16.41,-66.1 52.17,-72.57 35.73,-6.47 70.3,13.08 77.21,49.15 6.92,36.07 -16.41,70.55 -52.15,77.02 -35.73,6.48 -70.31,-17.52 -77.23,-53.6" /><path
         id="path98"
         style="fill:#f5b870;fill-opacity:1;fill-rule:evenodd;stroke:none"
         d="m 2919.56,4302.44 c 6.92,-36.06 -16.42,-66.1 -52.16,-72.57 -35.74,-6.47 -70.31,13.08 -77.22,49.15 -6.93,36.07 16.41,70.55 52.15,77.02 35.73,6.48 70.31,-17.52 77.23,-53.6" /><path
         id="path100"
         style="fill:#f7c386;fill-opacity:1;fill-rule:evenodd;stroke:none"
         d="m 3222.57,4531.36 c -34.89,47.4 -89.3,78.53 -147.08,80.82 -0.01,0 -1.13,0.05 -3,0.12 l 0.07,2.26 c 0,0 -14,-0.55 -28.46,-1.13 -14.47,0.58 -28.47,1.13 -28.47,1.13 l 0.06,-2.26 c -1.86,-0.07 -2.98,-0.12 -2.98,-0.12 -57.79,-2.29 -112.19,-33.42 -147.08,-80.82 -34.92,-47.45 -39.56,-107.21 -36.81,-164.43 7.08,-147.05 20.22,-311.73 215.9,-313.37 196.27,-1.64 207.59,167.37 214.66,313.37 2.74,57.22 -1.89,116.98 -36.81,164.43" /><path
         id="path102"
         style="fill:#ba8c30;fill-opacity:1;fill-rule:evenodd;stroke:none"
         d="m 2850.15,4319.59 c 2.59,54.19 3.28,152.22 50.74,152.22 1.21,0 144.15,59.23 308.74,59.23 37.89,0 47.29,-107.61 48.02,-178.42 0.58,-60.98 -10.87,-89.12 -6.45,-91.01 5.17,-2.22 26.27,33.18 26.21,119.16 -0.04,38.84 -1,99.06 -34.82,155.97 -11.9,20.03 -19.78,44.19 -44.3,60.59 -57.92,38.74 -181.73,29.89 -248.38,7.97 -184.38,-60.69 -118.8,-342.94 -112.84,-342.37 7.24,0.7 12.72,49.17 13.08,56.66" /><path
         id="path104"
         style="fill:#ba8c30;fill-opacity:1;fill-rule:evenodd;stroke:none"
         d="m 3067.06,4562.61 c 23.08,1.15 136.07,-29.16 136.07,-29.16 -84.35,-83.86 -221.33,-140.1 -340.34,-117.99 0,0 54.24,34.62 50.2,31.16 -4.04,-3.46 -50.4,-13.53 -66.36,-11.54 -15.95,1.98 -15.17,7.78 -15.17,7.78 92.43,85.22 90.03,84.4 235.6,119.75" /><path
         id="path106"
         style="fill:#383434;fill-opacity:1;fill-rule:evenodd;stroke:none"
         d="m 2866.01,4346.19 v 0 c 27.11,9.04 103.49,6.17 130.08,-7.82 31.03,-16.33 5.66,-73.69 -9.19,-93.01 -19.29,-25.08 -96.71,-28.54 -120.09,0.58 -7.56,9.42 -12.87,28.51 -15.12,40.71 -2.25,12.2 -4.11,36.99 0.13,47.87 4.25,10.87 14.19,11.67 14.19,11.67 z m 356.17,0 v 0 c 0,0 9.94,-0.8 14.19,-11.67 4.24,-10.88 2.38,-35.67 0.13,-47.87 -2.25,-12.2 -7.56,-31.29 -15.12,-40.71 -23.38,-29.12 -100.8,-25.66 -120.09,-0.58 -14.84,19.32 -40.22,76.68 -9.19,93.01 26.59,13.99 102.97,16.86 130.08,7.82 z m -203.54,-5.17 c -1.86,2.12 -7.31,8.8 -15.65,11.8 -39.18,14.12 -147.54,8.27 -176.36,1.06 -3.71,-0.93 -4.11,-0.79 -4.51,-3.31 -0.39,-2.52 -0.53,-17.37 0.67,-19.63 1.19,-2.25 6.89,-3.18 11.93,-10.6 9.04,-13.31 8.4,-61.64 29.98,-84.53 22.34,-23.71 107.03,-24.58 129.95,7 15.13,20.86 22.63,44.06 30.75,66.39 4.91,5.03 9.15,5.43 12.99,5.96 2.39,0.33 4.47,0.4 5.71,0.41 1.23,-0.01 3.31,-0.08 5.7,-0.41 3.84,-0.53 8.08,-0.93 12.99,-5.96 8.12,-22.33 15.62,-45.53 30.75,-66.39 22.92,-31.58 107.61,-30.71 129.95,-7 21.58,22.89 20.95,71.22 29.98,84.53 5.04,7.42 10.74,8.35 11.93,10.6 1.2,2.26 1.06,17.11 0.66,19.63 -0.39,2.52 -0.79,2.38 -4.51,3.31 -28.81,7.21 -137.17,13.06 -176.35,-1.06 -8.34,-3 -13.79,-9.68 -15.65,-11.8 -3.27,-1.26 -8.58,-1.86 -25.45,-1.48 -16.88,-0.38 -22.19,0.22 -25.46,1.48 v 0" /><path
         id="path108"
         style="fill:#383434;fill-opacity:1;fill-rule:evenodd;stroke:none"
         d="m 2934.74,4272.98 c 9.22,0 16.74,7.52 16.74,16.73 0,9.22 -7.52,16.74 -16.74,16.74 -9.21,0 -16.73,-7.52 -16.73,-16.74 0,-9.21 7.52,-16.73 16.73,-16.73" /><path
         id="path110"
         style="fill:#383434;fill-opacity:1;fill-rule:evenodd;stroke:none"
         d="m 3153.44,4272.98 c 9.22,0 16.74,7.52 16.74,16.73 0,9.22 -7.52,16.74 -16.74,16.74 -9.22,0 -16.73,-7.52 -16.73,-16.74 0,-9.21 7.51,-16.73 16.73,-16.73" /><path
         id="path112"
         style="fill:#d5724d;fill-opacity:1;fill-rule:evenodd;stroke:none"
         d="m 3124.6,4167.38 c -15.37,-19.67 -43.6,-32.86 -75.89,-32.86 -32.29,0 -60.52,13.19 -75.89,32.85 18.73,-13.53 44.93,-27.23 75.03,-27.23 30.09,0 58.02,13.7 76.75,27.24" /><path
         id="path114"
         style="fill:#e3aa6a;fill-opacity:1;fill-rule:evenodd;stroke:none"
         d="m 3010.38,4190.21 c -0.2,0.06 -0.23,0.22 -0.06,0.5 0,0.85 0.48,1.67 1.37,2.44 6.87,13.24 20.39,51.83 26.59,94.28 6.79,-0.41 -6.73,-72.25 -12.56,-89.4 5.89,1.03 13.06,1.63 20.81,1.63 20,0 36.21,-4.01 36.21,-8.95 0,-4.94 -16.21,-8.94 -36.21,-8.94 -19.31,0 -35.09,3.73 -36.15,8.44" /></g></g></svg>