<?xml version="1.0" encoding="UTF-8" standalone="no"?>
<svg
   xmlns:dc="http://purl.org/dc/elements/1.1/"
   xmlns:cc="http://creativecommons.org/ns#"
   xmlns:rdf="http://www.w3.org/1999/02/22-rdf-syntax-ns#"
   xmlns:svg="http://www.w3.org/2000/svg"
   xmlns="http://www.w3.org/2000/svg"
   viewBox="80 350 120 100"
   height="200"
   width="200"
   xml:space="preserve"
   id="svg2"
   version="1.1"><metadata
     id="metadata8"><rdf:RDF><cc:Work
         rdf:about=""><dc:format>image/svg+xml</dc:format><dc:type
           rdf:resource="http://purl.org/dc/dcmitype/StillImage" /></cc:Work></rdf:RDF></metadata><defs
     id="defs6" /><g
     transform="matrix(1.3333333,0,0,-1.3333333,0,666.66667)"
     id="g10"><g
       transform="scale(0.1)"
       id="g12"><path
         id="path192"
         style="fill:#3e3642;fill-opacity:1;fill-rule:evenodd;stroke:none"
         d="m 898.602,1672.21 c -4.618,3.47 -107.747,52.02 -107.747,52.02 -45.906,-15.15 -56.203,-118.24 -60.875,-178.96 h 109.688 l 58.934,126.94" /><path
         id="path194"
         style="fill:#3e3642;fill-opacity:1;fill-rule:evenodd;stroke:none"
         d="m 1081.37,1672.21 c 4.61,3.47 107.74,52.02 107.74,52.02 45.91,-15.15 56.21,-118.24 60.88,-178.96 H 1140.3 l -58.93,126.94" /><path
         id="path196"
         style="fill:#f4ad69;fill-opacity:1;fill-rule:evenodd;stroke:none"
         d="m 989.984,1837.22 h -48.406 v -30.56 c 0.027,-18.99 -3.137,-15.04 -20.875,-24.91 0,0 -17.113,-14.04 -22.324,-15.7 21.516,-69.25 37.066,-158.3 79.121,-220.78 h 12.484 12.486 c 42.05,62.48 57.6,151.53 79.12,220.78 -5.21,1.66 -22.32,15.7 -22.32,15.7 -17.74,9.87 -20.91,5.92 -20.88,24.91 v 30.56 h -48.406" /><path
         id="path198"
         style="fill:#463b4d;fill-opacity:1;fill-rule:evenodd;stroke:none"
         d="m 989.984,1670.78 c -79.933,6.32 -68.39,110.2 -69.304,110.72 -25.801,-11.77 -119.883,-48.63 -130.422,-57.76 8.551,-18.7 21.512,-95.71 32.722,-178.47 h 167.004 167.006 c 11.21,82.76 24.17,159.77 32.72,178.47 -10.53,9.13 -104.62,45.99 -130.42,57.76 -0.91,-0.52 10.63,-104.4 -69.306,-110.72" /><path
         id="path200"
         style="fill:#f5b870;fill-opacity:1;fill-rule:evenodd;stroke:none"
         d="m 1119.51,2052.77 c -6.93,-39.37 16.41,-72.16 52.16,-79.23 35.74,-7.05 70.3,14.29 77.21,53.66 6.93,39.37 -16.41,77.02 -52.15,84.08 -35.73,7.06 -70.3,-19.12 -77.22,-58.51" /><path
         id="path202"
         style="fill:#f5b870;fill-opacity:1;fill-rule:evenodd;stroke:none"
         d="m 870.152,2052.77 c 6.926,-39.37 -16.414,-72.16 -52.16,-79.23 -35.734,-7.05 -70.304,14.29 -77.222,53.66 -6.926,39.37 16.418,77.02 52.156,84.08 35.73,7.06 70.304,-19.12 77.226,-58.51" /><path
         id="path204"
         style="fill:#f7c386;fill-opacity:1;fill-rule:evenodd;stroke:none"
         d="m 1173.17,2287.24 c -34.9,47.4 -89.31,78.52 -147.08,80.82 -0.01,0 -1.14,0.05 -3,0.12 l 0.07,2.26 c 0,0 -14,-0.55 -28.469,-1.13 -14.461,0.58 -28.464,1.13 -28.464,1.13 l 0.058,-2.26 c -1.855,-0.07 -2.984,-0.12 -2.984,-0.12 -57.781,-2.3 -112.188,-33.42 -147.078,-80.82 -34.922,-47.45 -39.559,-107.21 -36.809,-164.43 2.078,-43.25 9.734,-113.06 11.879,-156.31 55.539,-207.72 355.047,-211.12 406.797,0 2.15,43.25 9.79,113.06 11.88,156.31 2.75,57.22 -1.89,116.98 -36.8,164.43" /><path
         id="path206"
         style="fill:#a64d38;fill-opacity:1;fill-rule:evenodd;stroke:none"
         d="m 817.855,2207.59 c -2.761,-5.98 13.098,54.01 47.895,55.05 36.426,1.08 262.8,-12.69 274.39,2.46 38.36,-48.55 66.36,-241.05 68.55,-240.62 5.1,0.99 5.69,19.86 6.2,23.9 3.66,28.39 4.65,57.51 4.63,86.09 -0.06,52.77 15.27,154.38 -80.21,217.7 -58.73,38.95 -180.122,42.82 -247.701,20.77 -47.07,-15.36 -92.199,-55.37 -108.98,-101.98 -18.414,-51.19 -17.945,-91.18 -11.879,-192.55 0.656,-11 1.953,-22.01 3.477,-32.91 1.011,-7.25 1.949,-14.68 3.711,-21.79 9.57,-38.61 10.476,138.26 39.917,183.88" /><path
         id="path208"
         style="fill:#a64d38;fill-opacity:1;fill-rule:evenodd;stroke:none"
         d="m 1175.34,2305.03 c -7.39,-73.99 -103.31,-131.27 -174.55,-131.27 l 20.77,19.62 c -80.076,-24.38 -124.775,-7.77 -124.642,-7.8 2.887,-0.58 33.18,13.56 33.18,13.56 -45.524,-1.38 -91.52,-2.04 -126.774,30.97 l 50.891,90.5 321.125,-15.58" /><path
         id="path210"
         style="fill:#383434;fill-opacity:1;fill-rule:evenodd;stroke:none"
         d="m 885.344,2020.46 c 9.219,0 16.734,7.52 16.734,16.74 0,9.21 -7.515,16.73 -16.734,16.73 -9.215,0 -16.735,-7.52 -16.735,-16.73 0,-9.22 7.52,-16.74 16.735,-16.74" /><path
         id="path212"
         style="fill:#383434;fill-opacity:1;fill-rule:evenodd;stroke:none"
         d="m 1104.04,2020.46 c 9.22,0 16.74,7.52 16.74,16.74 0,9.21 -7.52,16.73 -16.74,16.73 -9.22,0 -16.73,-7.52 -16.73,-16.73 0,-9.22 7.51,-16.74 16.73,-16.74" /><path
         id="path214"
         style="fill:#a64d38;fill-opacity:1;fill-rule:evenodd;stroke:none"
         d="m 827.77,2084.11 c -6.118,8.82 22.445,15.44 51.773,17.52 49.191,3.49 77.371,-18.48 53.664,-19.31 -17.711,-0.61 -103.644,-0.8 -105.437,1.79" /><path
         id="path216"
         style="fill:#a64d38;fill-opacity:1;fill-rule:evenodd;stroke:none"
         d="m 1151.85,2082.82 c 6.46,8.57 -21.83,16.3 -51.06,19.52 -49.01,5.4 -78.03,-15.45 -54.37,-17.19 17.67,-1.31 103.54,-4.85 105.43,-2.33" /><path
         id="path218"
         style="fill:#d5724d;fill-opacity:1;fill-rule:evenodd;stroke:none"
         d="m 1050.07,1918.59 c -10.22,-57.48 -102.879,-57.48 -113.097,0 27.632,-6.35 79.307,-6.39 113.097,0" /><path
         id="path220"
         style="fill:#e3aa6a;fill-opacity:1;fill-rule:evenodd;stroke:none"
         d="m 957.473,1952.41 c -0.196,0.06 -0.231,0.23 -0.059,0.51 0,0.84 0.477,1.66 1.363,2.44 6.871,13.23 20.395,51.83 26.594,94.28 6.789,-0.42 -6.734,-72.26 -12.555,-89.4 5.883,1.02 13.063,1.62 20.805,1.62 19.999,0 36.209,-4 36.209,-8.94 0,-4.94 -16.21,-8.95 -36.209,-8.95 -19.308,0 -35.086,3.74 -36.148,8.44" /></g></g></svg>