<?xml version="1.0" encoding="UTF-8" standalone="no"?>
<svg
   xmlns:dc="http://purl.org/dc/elements/1.1/"
   xmlns:cc="http://creativecommons.org/ns#"
   xmlns:rdf="http://www.w3.org/1999/02/22-rdf-syntax-ns#"
   xmlns:svg="http://www.w3.org/2000/svg"
   xmlns="http://www.w3.org/2000/svg"
   viewBox="90 50 120 100"
   height="200"
   width="200"
   xml:space="preserve"
   id="svg2"
   version="1.1"><metadata
     id="metadata8"><rdf:RDF><cc:Work
         rdf:about=""><dc:format>image/svg+xml</dc:format><dc:type
           rdf:resource="http://purl.org/dc/dcmitype/StillImage" /></cc:Work></rdf:RDF></metadata><defs
     id="defs6" /><g
     transform="matrix(1.3333333,0,0,-1.3333333,0,666.66667)"
     id="g10"><g
       transform="scale(0.1)"
       id="g12"><path
         id="path48"
         style="fill:#d53323;fill-opacity:1;fill-rule:evenodd;stroke:none"
         d="m 898.602,3914.72 c -4.618,3.46 -107.747,52.02 -107.747,52.02 -45.906,-15.15 -56.203,-118.24 -60.875,-178.96 h 109.688 l 58.934,126.94" /><path
         id="path50"
         style="fill:#d53323;fill-opacity:1;fill-rule:evenodd;stroke:none"
         d="m 1081.37,3914.72 c 4.61,3.46 107.74,52.02 107.74,52.02 45.91,-15.15 56.21,-118.24 60.88,-178.96 H 1140.3 l -58.93,126.94" /><path
         id="path52"
         style="fill:#f4ad69;fill-opacity:1;fill-rule:evenodd;stroke:none"
         d="m 989.984,4079.73 h -48.41 v -30.56 c 0.031,-18.99 -3.133,-15.04 -20.875,-24.92 0,0 -70.773,-59.04 -75.984,-60.7 21.515,-69.25 72.844,-81.56 114.894,-144.03 l 29.219,-9.23 30.952,4.61 c 42.05,62.47 105.5,62.55 127.01,131.8 -5.21,1.66 -87.52,77.55 -87.52,77.55 -17.75,9.88 -20.91,5.93 -20.88,24.92 v 30.56 h -48.406" /><path
         id="path54"
         style="fill:#e53122;fill-opacity:1;fill-rule:evenodd;stroke:none"
         d="m 920.68,4024 c -25.801,-11.76 -119.883,-48.62 -130.422,-57.75 8.551,-18.71 21.512,-95.71 32.722,-178.47 h 167.004 167.006 c 11.21,82.76 24.17,159.76 32.72,178.47 -10.53,9.13 -104.62,45.99 -130.42,57.75 14.98,-71.09 -0.05,-137.92 -67.688,-138.18 -68.332,-0.26 -83.985,76.28 -70.922,138.18" /><path
         id="path56"
         style="fill:#f5b870;fill-opacity:1;fill-rule:evenodd;stroke:none"
         d="m 1119.51,4300.83 c -6.94,-36.06 16.41,-66.1 52.16,-72.58 35.74,-6.46 70.3,13.08 77.21,49.16 6.93,36.06 -16.41,70.55 -52.15,77.02 -35.73,6.47 -70.31,-17.52 -77.22,-53.6" /><path
         id="path58"
         style="fill:#f5b870;fill-opacity:1;fill-rule:evenodd;stroke:none"
         d="m 870.152,4300.83 c 6.926,-36.06 -16.414,-66.1 -52.16,-72.58 -35.734,-6.46 -70.304,13.08 -77.222,49.16 -6.926,36.06 16.418,70.55 52.156,77.02 35.73,6.47 70.304,-17.52 77.226,-53.6" /><path
         id="path60"
         style="fill:#f7c386;fill-opacity:1;fill-rule:evenodd;stroke:none"
         d="m 1173.17,4529.75 c -34.9,47.39 -89.31,78.52 -147.08,80.82 -0.01,0 -1.14,0.05 -3,0.12 l 0.07,2.26 c 0,0 -14,-0.56 -28.469,-1.13 -14.461,0.57 -28.464,1.13 -28.464,1.13 l 0.058,-2.26 c -1.855,-0.07 -2.984,-0.12 -2.984,-0.12 -57.781,-2.3 -112.188,-33.43 -147.078,-80.82 -34.922,-47.45 -39.563,-107.21 -36.809,-164.44 7.078,-147.04 20.223,-311.72 215.899,-313.36 196.267,-1.64 207.587,167.36 214.657,313.36 2.75,57.23 -1.89,116.99 -36.8,164.44" /><path
         id="path62"
         style="fill:#ec6f17;fill-opacity:1;fill-rule:evenodd;stroke:none"
         d="m 790.195,4320.8 c 2.59,54.2 3.282,152.23 50.743,152.23 35.144,0 96.667,-21.76 153.32,-24.67 53.292,3.4 120.062,27.35 155.422,27.35 37.88,0 47.28,-51.06 48.02,-121.87 0.13,-14.59 1.15,-29.19 1.98,-43.75 0.49,-8.55 1.11,-17.08 1.54,-25.63 0.17,-3.47 1.07,-12.76 5.56,-11.88 5.04,0.98 5.62,19.76 6.13,23.77 3.61,28.25 4.57,57.22 4.55,85.64 -0.04,38.84 -1.01,99.06 -34.82,155.97 -11.9,20.02 -19.78,44.19 -44.3,60.59 -57.92,38.74 -177.692,42.59 -244.348,20.66 -46.433,-15.28 -90.949,-55.08 -107.508,-101.45 -18.168,-50.91 -17.695,-90.69 -11.711,-191.53 0.645,-10.94 1.911,-21.9 3.43,-32.73 0.985,-7.21 1.914,-14.61 3.649,-21.68 3.8,-15.41 9.074,-4.41 8.906,5.18 -0.246,14.64 -1.266,29.15 -0.563,43.8" /><path
         id="path64"
         style="fill:#ec6f17;fill-opacity:1;fill-rule:evenodd;stroke:none"
         d="m 774.168,4347.63 c -6.406,68.4 -19.668,246.71 31.605,273.18 21.813,11.26 135.793,22.25 189.598,21.09 h 0.008 c 53.811,1.16 167.791,-9.83 189.601,-21.09 51.28,-26.47 38.01,-204.78 31.61,-273.18 0,0 -26.49,108.44 -55.91,152.3 -29.42,43.85 -147.08,21.92 -164.989,13.84 -0.105,-0.04 -0.211,-0.06 -0.312,-0.1 v 0 h -0.004 -0.004 v 0 c -0.101,0.04 -0.203,0.06 -0.308,0.1 -17.907,8.08 -135.575,30.01 -164.993,-13.84 -29.418,-43.86 -55.902,-152.3 -55.902,-152.3" /><path
         id="path66"
         style="fill:#383434;fill-opacity:1;fill-rule:evenodd;stroke:none"
         d="m 885.344,4283.67 c 9.219,0 16.73,7.51 16.73,16.73 0,9.22 -7.511,16.74 -16.73,16.74 -9.219,0 -16.739,-7.52 -16.739,-16.74 0,-9.22 7.52,-16.73 16.739,-16.73" /><path
         id="path68"
         style="fill:#383434;fill-opacity:1;fill-rule:evenodd;stroke:none"
         d="m 1104.04,4283.67 c 9.22,0 16.74,7.51 16.74,16.73 0,9.22 -7.52,16.74 -16.74,16.74 -9.21,0 -16.73,-7.52 -16.73,-16.74 0,-9.22 7.52,-16.73 16.73,-16.73" /><path
         id="path70"
         style="fill:#d5724d;fill-opacity:1;fill-rule:evenodd;stroke:none"
         d="m 919.637,4183.83 c 26.062,-18.83 52.679,-27.85 79.293,-27.01 26.61,-0.84 53.22,8.18 79.29,27.01 20.93,-89.4 -179.513,-89.4 -158.583,0" /><path
         id="path72"
         style="fill:#e3aa6a;fill-opacity:1;fill-rule:evenodd;stroke:none"
         d="m 958.352,4200.89 c -0.2,0.07 -0.231,0.23 -0.059,0.51 0,0.85 0.477,1.66 1.363,2.44 6.871,13.23 20.395,51.83 26.594,94.28 6.789,-0.42 -6.734,-72.25 -12.555,-89.4 5.883,1.03 13.063,1.62 20.805,1.62 20,0 36.21,-4 36.21,-8.94 0,-4.94 -16.21,-8.94 -36.21,-8.94 -19.309,0 -35.086,3.73 -36.148,8.43" /><path
         id="path74"
         style="fill:#ec6f17;fill-opacity:1;fill-rule:evenodd;stroke:none"
         d="m 834.43,4352.3 c -5.414,9.27 23.578,13.64 52.98,13.43 49.313,-0.36 75.692,-24.46 51.992,-23.43 -17.703,0.77 -103.39,7.29 -104.972,10" /><path
         id="path76"
         style="fill:#ec6f17;fill-opacity:1;fill-rule:evenodd;stroke:none"
         d="m 1159.4,4352.9 c 5.59,9.16 -23.31,14.1 -52.71,14.48 -49.31,0.62 -76.16,-22.96 -52.45,-22.4 17.72,0.42 103.52,5.23 105.16,7.92" /></g></g></svg>