<?xml version="1.0" encoding="UTF-8" standalone="no"?>
<svg
   xmlns:dc="http://purl.org/dc/elements/1.1/"
   xmlns:cc="http://creativecommons.org/ns#"
   xmlns:rdf="http://www.w3.org/1999/02/22-rdf-syntax-ns#"
   xmlns:svg="http://www.w3.org/2000/svg"
   xmlns="http://www.w3.org/2000/svg"
   viewBox="210 50 120 100"
   height="200"
   width="200"
   xml:space="preserve"
   id="svg2"
   version="1.1"><metadata
     id="metadata8"><rdf:RDF><cc:Work
         rdf:about=""><dc:format>image/svg+xml</dc:format><dc:type
           rdf:resource="http://purl.org/dc/dcmitype/StillImage" /></cc:Work></rdf:RDF></metadata><defs
     id="defs6" /><g
     transform="matrix(1.3333333,0,0,-1.3333333,0,666.66667)"
     id="g10"><g
       transform="scale(0.1)"
       id="g12"><path
         id="path14"
         style="fill:#fff;fill-opacity:1;fill-rule:nonzero;stroke:none"
         d="M 5000,0 H 0 V 5000 H 5000 V 0" /><path
         id="path16"
         style="fill:#92321f;fill-opacity:1;fill-rule:evenodd;stroke:none"
         d="m 2276.1,4213.96 c -2.3,-24.24 -87.83,-204.92 -87.83,-204.92 l -204.43,4.11 c 0,0 -127.82,93.48 -137.05,162.72 -9.24,69.25 -3.99,133.96 -3.99,133.96 l 430.63,10.53 2.67,-106.4" /><path
         id="path18"
         style="fill:none;stroke:#211816;stroke-width:5.66900015;stroke-linecap:butt;stroke-linejoin:miter;stroke-miterlimit:22.92560005;stroke-dasharray:none;stroke-opacity:1"
         d="m 2276.1,4213.96 c -2.3,-24.24 -87.83,-204.92 -87.83,-204.92 l -204.43,4.11 c 0,0 -127.82,93.48 -137.05,162.72 -9.24,69.25 -3.99,133.96 -3.99,133.96 l 430.63,10.53 z" /><path
         id="path20"
         style="fill:#d0a2cf;fill-opacity:1;fill-rule:evenodd;stroke:none"
         d="m 2189.3,3869.14 c 4.61,3.46 66.13,124.71 66.13,124.71 45.91,-15.14 59.15,-145.35 63.83,-206.07 h -109.69 l -20.27,81.36" /><path
         id="path22"
         style="fill:#f5b870;fill-opacity:1;fill-rule:evenodd;stroke:none"
         d="m 2056.63,4079.73 h -48.41 v -30.56 c 0.05,-36.23 -96.27,-39.54 -128.94,-49.97 8.82,-75.59 78.95,-131.06 182.17,-201.61 h 12.49 12.48 c 42.05,62.47 147.7,100.63 150.17,201.61 -33.12,10.58 -131.61,13.32 -131.56,49.97 v 30.56 h -48.4" /><path
         id="path24"
         style="fill:#d0a2cf;fill-opacity:1;fill-rule:evenodd;stroke:none"
         d="m 1930.04,3882.98 c -4.62,3.46 -69.59,110.87 -69.59,110.87 -45.91,-15.14 -59.16,-145.35 -63.83,-206.07 h 109.69 l 23.73,95.2" /><path
         id="path26"
         style="fill:#dba8d6;fill-opacity:1;fill-rule:evenodd;stroke:none"
         d="m 1879.28,3999.2 c -11.74,-2.72 -20.43,-5.3 -23.22,-7.72 52.41,-99.49 -24.97,-139.41 3.55,-203.7 h 197.02 1.31 1.31 197.01 c 28.52,64.29 -48.85,104.21 3.55,203.7 -2.78,2.42 -11.47,5 -23.22,7.72 -12.87,-66.07 -87.95,-116.77 -178.65,-116.77 -90.71,0 -165.79,50.7 -178.66,116.77" /><path
         id="path28"
         style="fill:#f7c386;fill-opacity:1;fill-rule:evenodd;stroke:none"
         d="m 2061.95,4611.84 -0.62,-0.02 c -14.46,0.57 -28.46,1.13 -28.46,1.13 l 0.06,-2.26 c -1.86,-0.07 -2.99,-0.12 -2.99,-0.12 -57.78,-2.3 -112.19,-33.43 -147.08,-80.82 -34.92,-47.45 -39.56,-107.21 -36.81,-164.44 7.08,-147.04 89.45,-312.14 215.9,-313.36 126.46,1.22 208.83,166.32 215.91,313.36 2.74,57.23 -1.89,116.99 -36.82,164.44 -34.88,47.39 -89.29,78.52 -147.07,80.82 0,0 -1.13,0.05 -2.99,0.12 l 0.06,2.26 c 0,0 -14,-0.56 -28.46,-1.13 l -0.63,0.02" /><path
         id="path30"
         style="fill:#ce4920;fill-opacity:1;fill-rule:evenodd;stroke:none"
         d="m 2212.76,4341.96 c 9.91,-4.11 -6.56,22.75 -55.29,23.81 -56.8,1.24 -74.08,-26.08 -51.7,-18.23 48.28,16.92 91.27,0.94 106.99,-5.58" /><path
         id="path32"
         style="fill:#383434;fill-opacity:1;fill-rule:evenodd;stroke:none"
         d="m 1968.14,4289.05 c 9.21,0 16.73,7.52 16.73,16.74 0,9.21 -7.52,16.73 -16.73,16.73 -9.22,0 -16.74,-7.52 -16.74,-16.73 0,-9.22 7.52,-16.74 16.74,-16.74" /><path
         id="path34"
         style="fill:#383434;fill-opacity:1;fill-rule:evenodd;stroke:none"
         d="m 2156.84,4289.05 c 9.21,0 16.73,7.52 16.73,16.74 0,9.21 -7.52,16.73 -16.73,16.73 -9.22,0 -16.74,-7.52 -16.74,-16.73 0,-9.22 7.52,-16.74 16.74,-16.74" /><path
         id="path36"
         style="fill:#d5724d;fill-opacity:1;fill-rule:evenodd;stroke:none"
         d="m 1996.03,4170.15 c 40.83,-22 87.88,-22 128.71,0 -10.13,-65.06 -117.72,-63.04 -128.71,0" /><path
         id="path38"
         style="fill:#e3aa6a;fill-opacity:1;fill-rule:evenodd;stroke:none"
         d="m 2024.18,4205.7 c -0.19,0.07 -0.23,0.23 -0.05,0.51 0,0.84 0.47,1.66 1.36,2.44 6.87,13.23 20.39,51.83 26.59,94.28 6.79,-0.42 -6.73,-72.26 -12.55,-89.4 5.88,1.02 13.06,1.62 20.8,1.62 20,0 36.21,-4 36.21,-8.94 0,-4.94 -16.21,-8.94 -36.21,-8.94 -19.31,0 -35.08,3.73 -36.15,8.43" /><path
         id="path40"
         style="fill:#ce4920;fill-opacity:1;fill-rule:evenodd;stroke:none"
         d="m 1908.24,4341.53 c -9.91,-4.11 6.56,22.75 55.29,23.81 56.81,1.24 74.09,-26.08 51.71,-18.23 -48.29,16.93 -91.28,0.94 -107,-5.58" /><path
         id="path42"
         style="fill:#ce4920;fill-opacity:1;fill-rule:evenodd;stroke:none"
         d="m 1908.41,4558.4 c 78.87,-46.58 317.65,-124.57 310.67,-356.72 0,0 16.74,92.98 17.31,88.62 0.58,-4.35 12.12,-61.74 -5.19,-146.73 -17.31,-85 -87.71,-184.31 -84.83,-179.95 2.89,4.36 76.76,40.15 120.03,139.25 125.69,287.82 25.63,598.4 -273.07,535.97 -64.12,-13.41 -113.34,-63.66 -84.92,-80.44" />




<path
         id="path44"
         style="fill:#ce4920;fill-opacity:1;fill-rule:evenodd;stroke:none"
         d="m 1996.03,4530.21 c -165.6,-87.42 -99.23,-389.61 -33.27,-491.08 31.54,-48.53 63.89,-80.07 52.56,-70.37 -11.32,9.7 -93,3.24 -180.35,168.23 -70.25,132.69 -93.48,465.86 124.55,465.86 l 36.51,-72.64" /><path
         id="path46"
         style="fill:#ce4920;fill-opacity:1;fill-rule:evenodd;stroke:none"
         d="m 1840.2,4435.45 c 9.23,8.08 54.32,61.72 54.32,61.72 -43.3,-181.7 36.61,-334.08 36.27,-333.51 -66.85,114.63 -76.4,141.04 -90.59,271.79" />

</g></g></svg>