<?xml version="1.0" encoding="UTF-8" standalone="no"?>
<svg
   xmlns:dc="http://purl.org/dc/elements/1.1/"
   xmlns:cc="http://creativecommons.org/ns#"
   xmlns:rdf="http://www.w3.org/1999/02/22-rdf-syntax-ns#"
   xmlns:svg="http://www.w3.org/2000/svg"
   xmlns="http://www.w3.org/2000/svg"
viewBox="485 350 120 100"
   height="200"
   width="200"
   xml:space="preserve"
   id="svg2"
   version="1.1"><metadata
     id="metadata8"><rdf:RDF><cc:Work
         rdf:about=""><dc:format>image/svg+xml</dc:format><dc:type
           rdf:resource="http://purl.org/dc/dcmitype/StillImage" /></cc:Work></rdf:RDF></metadata><defs
     id="defs6" /><g
     transform="matrix(1.3333333,0,0,-1.3333333,0,666.66667)"
     id="g10"><g
       transform="scale(0.1)"
       id="g12"><path
         id="path466"
         style="fill:#b14020;fill-opacity:1;fill-rule:evenodd;stroke:none"
         d="m 4239.1,1866.05 c -2.6,-1.45 -39.98,-45.06 -39.98,-45.06 0,0 -49.57,32.77 -152.54,31.61 -102.97,-1.15 -146.24,-30.48 -146.24,-30.48 0,0 -28.24,21.14 -39.78,60.95 -11.54,39.82 -21.44,156.01 -15.58,157.54 5.86,1.53 424.12,5.19 424.12,5.19 l -30,-179.75" /><path
         id="path468"
         style="fill:#f4ad69;fill-opacity:1;fill-rule:evenodd;stroke:none"
         d="m 4140.29,1672.21 c 4.61,3.47 104.79,79.13 104.79,79.13 45.91,-15.14 59.16,-145.34 63.83,-206.07 h -109.69 l -58.93,126.94" /><path
         id="path470"
         style="fill:#d92e5a;fill-opacity:1;fill-rule:evenodd;stroke:none"
         d="m 4187.79,1708.75 57.24,43.22 c 40.41,-13.33 55.51,-115.81 61.73,-181.58 h -118.97 v 138.36" /><path
         id="path472"
         style="fill:#f4ad69;fill-opacity:1;fill-rule:evenodd;stroke:none"
         d="m 4046.27,1837.22 h -48.4 v -30.56 c 0.03,-18.99 -3.13,-15.04 -20.88,-24.91 0,0 -17.11,-14.04 -22.32,-15.7 21.51,-69.25 37.07,-158.3 79.12,-220.78 h 12.48 12.49 c 42.05,62.48 57.61,151.53 79.12,220.78 -5.21,1.66 -22.32,15.7 -22.32,15.7 -17.74,9.87 -20.91,5.92 -20.88,24.91 v 30.56 h -48.41" /><path
         id="path474"
         style="fill:#f4ad69;fill-opacity:1;fill-rule:evenodd;stroke:none"
         d="m 3954.89,1672.21 c -4.61,3.47 -104.79,79.13 -104.79,79.13 -45.91,-15.14 -59.16,-145.34 -63.83,-206.07 h 109.69 l 58.93,126.94" /><path
         id="path476"
         style="fill:#d92e5a;fill-opacity:1;fill-rule:evenodd;stroke:none"
         d="m 3907.33,1708.12 -57.23,43.22 c -40.42,-13.33 -55.51,-115.81 -61.74,-181.58 h 118.97 v 138.36" /><path
         id="path478"
         style="fill:#e93866;fill-opacity:1;fill-rule:evenodd;stroke:none"
         d="m 4016.28,1713.48 c -42.6,15.65 -47.94,61.32 -39.31,68.02 -18.98,-8.66 -75.36,-17.24 -108.04,-24.8 l -0.54,-0.13 -0.55,-0.13 -0.54,-0.12 -0.53,-0.13 -0.53,-0.13 -0.53,-0.12 -1.03,-0.26 -0.51,-0.12 -0.51,-0.13 -0.5,-0.12 -0.02,-0.01 -0.47,-0.12 -0.49,-0.12 -0.49,-0.13 -0.48,-0.12 -0.47,-0.12 -0.47,-0.13 -1.25,-0.34 -0.12,-0.03 -0.44,-0.13 -0.44,-0.12 -0.43,-0.12 -0.43,-0.12 -0.42,-0.13 -0.42,-0.12 -0.34,-0.1 -0.07,-0.02 -0.4,-0.12 -0.4,-0.12 -0.37,-0.12 h -0.01 l -0.39,-0.13 -0.75,-0.24 -0.27,-0.09 -0.09,-0.03 -1.05,-0.36 -0.18,-0.06 -0.16,-0.06 -0.65,-0.24 -0.32,-0.11 -0.27,-0.11 -0.81,-0.32 -0.25,-0.11 c -0.3,-0.12 -0.59,-0.25 -0.86,-0.38 l -0.04,-0.01 -0.03,-0.02 c -0.3,-0.13 -0.57,-0.27 -0.84,-0.41 l -0.06,-0.03 c -0.24,-0.12 -0.47,-0.24 -0.68,-0.37 l -0.08,-0.05 -0.04,-0.02 c -0.22,-0.13 -0.42,-0.26 -0.6,-0.39 l -0.04,-0.02 -0.02,-0.02 c -0.2,-0.14 -0.38,-0.28 -0.54,-0.41 4.63,-10.12 10.8,-44.71 17.25,-87.43 -6.53,-43.59 -32.06,-74.88 -13.69,-116.28 h 30 167 1.32 1.31 167.01 30 c 18.37,41.4 -7.16,72.69 -13.7,116.28 6.46,42.72 12.63,77.31 17.25,87.43 -0.15,0.14 -0.33,0.27 -0.53,0.41 l -0.02,0.02 -0.04,0.02 c -0.18,0.13 -0.38,0.26 -0.6,0.39 l -0.04,0.02 -0.08,0.05 c -0.22,0.13 -0.44,0.25 -0.69,0.37 l -0.05,0.03 c -0.26,0.14 -0.54,0.28 -0.84,0.41 l -0.03,0.02 -0.04,0.01 -0.86,0.38 -0.25,0.11 -0.81,0.32 -0.27,0.11 -0.32,0.11 -0.65,0.24 -0.16,0.06 -0.18,0.06 -1.05,0.36 -0.09,0.03 -0.28,0.09 -0.74,0.24 -0.39,0.13 h -0.01 l -0.38,0.12 -0.39,0.12 -0.41,0.12 -0.07,0.02 -0.34,0.1 -0.41,0.12 -0.42,0.13 -0.43,0.12 -0.43,0.12 -0.44,0.12 -0.45,0.13 -0.11,0.03 -1.26,0.34 -0.46,0.13 -0.48,0.12 -0.48,0.12 -0.48,0.13 -0.49,0.12 -0.47,0.12 -0.02,0.01 -0.5,0.12 -0.51,0.13 -0.51,0.12 -1.03,0.26 -0.53,0.12 -0.53,0.13 -0.53,0.13 -0.54,0.12 -0.55,0.13 -0.55,0.13 c -32.67,7.56 -89.06,16.15 -108.03,24.8 8.63,-6.7 3.29,-52.37 -39.32,-68.02 h 0.01 l -18.17,-59.9 -15.32,-54.25 -29.13,114.15 v 0" /><path
         id="path480"
         style="fill:#f7c386;fill-opacity:1;fill-rule:evenodd;stroke:none"
         d="m 4051.61,2369.34 -0.62,-0.03 c -14.47,0.58 -28.47,1.13 -28.47,1.13 l 0.06,-2.26 c -1.86,-0.07 -2.99,-0.12 -2.99,-0.12 -57.78,-2.29 -112.18,-33.42 -147.08,-80.82 -34.92,-47.45 -39.56,-107.21 -36.81,-164.43 7.08,-147.05 89.45,-312.14 215.91,-313.37 126.46,1.23 208.82,166.32 215.9,313.37 2.75,57.22 -1.89,116.98 -36.81,164.43 -34.89,47.4 -89.3,78.53 -147.08,80.82 0,0 -1.13,0.05 -2.99,0.12 l 0.07,2.26 c 0,0 -14.01,-0.55 -28.47,-1.13 l -0.62,0.03" /><path
         id="path482"
         style="fill:#ce4920;fill-opacity:1;fill-rule:evenodd;stroke:none"
         d="m 4150,2312.36 c -1.73,-8.08 -0.18,-51.37 49.63,-117.71 49.81,-66.35 53.66,-72.14 53.66,-72.14 0,0 -5.2,-102.13 -4.62,-96.94 0.58,5.2 27.59,102.51 27.59,102.51 0,0 12.8,55.6 0.11,107.54 -12.69,51.93 -28.71,71.51 -50.72,80.26 -22.01,8.76 -75.65,-3.52 -75.65,-3.52" /><path
         id="path484"
         style="fill:#ce4920;fill-opacity:1;fill-rule:evenodd;stroke:none"
         d="m 3845.59,2161.86 c -8.66,-9.81 -28.83,-30.14 -28.83,-30.14 l 22.48,-102.58 6.35,132.72" /><path
         id="path486"
         style="fill:#ce4920;fill-opacity:1;fill-rule:evenodd;stroke:none"
         d="m 4251.37,2084.39 c 2.27,37.91 24.43,160.6 14.91,184.22 -43.86,108.71 -226.18,170.95 -268.93,59.15 -12.81,-33.48 95.5,-0.04 103,-44.63 9.85,-58.49 82.85,-158.2 151.02,-198.74" /><path
         id="path488"
         style="fill:#ce4920;fill-opacity:1;fill-rule:evenodd;stroke:none"
         d="m 4159.8,2299.83 c 48.64,-45.74 -102.29,-147.71 -301.05,-192.92 -101.16,97.34 31.51,364.98 251.92,265.98 l 49.13,-73.06" /><path
         id="path490"
         style="fill:#ce4920;fill-opacity:1;fill-rule:evenodd;stroke:none"
         d="m 3821.4,2197.18 c -12.67,-88.73 -32.85,-364.53 86.01,-385.8 -44.67,61.89 -47.6,200.06 -48.82,308.28 -0.83,74.39 -4.62,118.75 -5.45,178.32 -16.85,-22 -28,-74.62 -31.74,-100.8" /><path
         id="path492"
         style="fill:#ce4920;fill-opacity:1;fill-rule:evenodd;stroke:none"
         d="m 4273.86,2197.18 c 12.66,-88.73 32.85,-364.53 -86.01,-385.8 75.06,105.07 51.78,341.29 54.27,486.6 16.85,-22 28,-74.62 31.74,-100.8" /><path
         id="path494"
         style="fill:#383434;fill-opacity:1;fill-rule:evenodd;stroke:none"
         d="m 3962.26,2026.43 c 9.21,0 16.73,7.52 16.73,16.73 0,9.22 -7.52,16.74 -16.73,16.74 -9.22,0 -16.74,-7.52 -16.74,-16.74 0,-9.21 7.52,-16.73 16.74,-16.73" /><path
         id="path496"
         style="fill:#383434;fill-opacity:1;fill-rule:evenodd;stroke:none"
         d="m 4140.95,2026.43 c 9.22,0 16.74,7.52 16.74,16.73 0,9.22 -7.52,16.74 -16.74,16.74 -9.21,0 -16.73,-7.52 -16.73,-16.74 0,-9.21 7.52,-16.73 16.73,-16.73" /><path
         id="path498"
         style="fill:#e3aa6a;fill-opacity:1;fill-rule:evenodd;stroke:none"
         d="m 4019.58,1957.8 c -0.2,0.07 -0.23,0.23 -0.06,0.51 0,0.85 0.47,1.66 1.36,2.44 6.88,13.23 20.4,51.83 26.59,94.28 6.8,-0.42 -6.73,-72.25 -12.55,-89.4 5.89,1.03 13.06,1.62 20.81,1.62 20,0 36.21,-4 36.21,-8.94 0,-4.94 -16.21,-8.94 -36.21,-8.94 -19.31,0 -35.09,3.73 -36.15,8.43" /><path
         id="path500"
         style="fill:#8e331e;fill-opacity:1;fill-rule:evenodd;stroke:none"
         d="m 4091.03,2083.48 c -9.91,-4.11 6.57,22.75 55.3,23.81 56.8,1.24 74.08,-26.08 51.7,-18.24 -48.28,16.93 -91.27,0.95 -107,-5.57" /><path
         id="path502"
         style="fill:#8e331e;fill-opacity:1;fill-rule:evenodd;stroke:none"
         d="m 4012.17,2083.48 c 9.91,-4.11 -6.56,22.75 -55.29,23.81 -56.8,1.24 -74.09,-26.08 -51.7,-18.24 48.28,16.93 91.27,0.95 106.99,-5.57" /><path
         id="path504"
         style="fill:#d5724d;fill-opacity:1;fill-rule:evenodd;stroke:none"
         d="m 3995.81,1919.09 c 21.38,-14.32 92.24,-14.52 113.93,0 15.04,-59.52 -128.97,-59.52 -113.93,0" /></g></g></svg>